<svg width="16" height="16" viewBox="0 0 16 16" fill="none" xmlns="http://www.w3.org/2000/svg">
    <path
        d="M10 10C10 10.5523 10.4477 11 11 11C11.5523 11 12 10.5523 12 10C12 9.44773 11.5523 9 11 9C10.4477 9 10 9.44773 10 10Z"
        stroke="#FFF" stroke-width="1.5" />
    <path
        d="M2 8V4C3.40313 4.41422 6.38413 4.95114 10.0025 5.20187C11.9501 5.33683 12.9239 5.40431 13.4619 5.98459C14 6.56487 14 7.4998 14 9.36973V10.7122C14 12.6377 14 13.6005 13.3442 14.1999C12.6883 14.7991 11.7946 14.7118 10.0071 14.5372C9.57147 14.4946 9.12307 14.444 8.66667 14.3841"
        stroke="#FFF" stroke-width="1.5" stroke-linecap="round" stroke-linejoin="round" />
    <path
        d="M11.7505 5.33301C12.0023 4.38416 12.2302 2.65849 11.5513 1.80162C11.1211 1.25852 10.4815 1.3107 9.85453 1.36585C6.55861 1.65571 4.23029 2.24455 2.92867 2.64459C2.36899 2.81661 2 3.36315 2 3.9733"
        stroke="#FFF" stroke-width="1.5" stroke-linejoin="round" />
    <path
        d="M7.33333 11.9997H4.66667M4.66667 11.9997H2M4.66667 11.9997V14.6663M4.66667 11.9997V9.33301"
        stroke="#FFF" stroke-width="1.5" stroke-linecap="round" />
</svg>
