<svg width="18" height="18" viewBox="0 0 18 18" fill="none" xmlns="http://www.w3.org/2000/svg">
<path d="M8.25488 15.75H7.2041C4.51516 15.75 3.17069 15.75 2.33534 14.8987C1.5 14.0476 1.5 12.6775 1.5 9.9375C1.5 7.19746 1.5 5.82744 2.33534 4.97622C3.17069 4.125 4.51516 4.125 7.2041 4.125H10.0562C12.7451 4.125 14.0896 4.125 14.9249 4.97622C15.5676 5.63114 15.7158 6.59317 15.75 8.25" stroke="#03002F" stroke-width="1.5" stroke-linecap="round" stroke-linejoin="round"/>
<path d="M12 4.125L11.9255 3.8932C11.5542 2.73817 11.3686 2.16065 10.9267 1.83032C10.4847 1.5 9.89775 1.5 8.7237 1.5H8.5263C7.35228 1.5 6.76527 1.5 6.32333 1.83032C5.8814 2.16065 5.69577 2.73817 5.3245 3.8932L5.25 4.125" stroke="#03002F" stroke-width="1.5" stroke-linecap="round" stroke-linejoin="round"/>
<path d="M15.75 12.6379C15.75 14.6438 13.5326 16.0995 12.9105 16.4568C12.8101 16.5144 12.6899 16.5144 12.5895 16.4568C11.9674 16.0995 9.75 14.6438 9.75 12.6379C9.75 11.1 11.0931 9.75 12.75 9.75C14.4068 9.75 15.75 11.1 15.75 12.6379Z" stroke="#03002F" stroke-width="1.5"/>
<path d="M12.75 12.75H12.7567" stroke="#03002F" stroke-width="2" stroke-linecap="round" stroke-linejoin="round"/>
</svg>
