<svg width="20" height="20" viewBox="0 0 20 20" fill="none" xmlns="http://www.w3.org/2000/svg">
<g clip-path="url(#clip0_2496_2602)">
<path d="M15.4168 12.5683H13.7502M10.8335 12.5683H9.16683M6.25016 12.5683H4.5835" stroke="#0A4BB8" stroke-width="1.5" stroke-linecap="round" stroke-linejoin="round"/>
<path d="M13.3332 4.94384C13.3332 7.17252 10.8694 8.79 10.1782 9.187C10.0667 9.251 9.933 9.251 9.8215 9.187C9.13025 8.79 6.6665 7.17252 6.6665 4.94384C6.6665 3.23502 8.15889 1.73502 9.99984 1.73502C11.8408 1.73502 13.3332 3.23502 13.3332 4.94384Z" stroke="#0A4BB8" stroke-width="1.5"/>
<path d="M10 5.06836H10.0075" stroke="#0A4BB8" stroke-width="2" stroke-linecap="round" stroke-linejoin="round"/>
<path d="M15.8332 6.73502C16.4786 6.85992 16.9655 7.06837 17.3568 7.41627C18.3332 8.28422 18.3332 9.68117 18.3332 12.475C18.3332 15.2689 18.3332 16.6658 17.3568 17.5337C16.3806 18.4017 14.8092 18.4017 11.6665 18.4017H8.33317C5.19047 18.4017 3.61913 18.4017 2.64281 17.5337C1.6665 16.6658 1.6665 15.2688 1.6665 12.475C1.6665 9.68117 1.6665 8.28421 2.64281 7.41626C3.03415 7.06837 3.52109 6.85992 4.1665 6.73502" stroke="#0A4BB8" stroke-width="1.5" stroke-linecap="round" stroke-linejoin="round"/>
</g>
<defs>
<clipPath id="clip0_2496_2602">
<rect width="20" height="20" fill="white"/>
</clipPath>
</defs>
</svg>
