<svg width="18" height="18" viewBox="0 0 18 18" fill="none" xmlns="http://www.w3.org/2000/svg">
<path d="M10.875 6.75C10.875 7.78552 10.0355 8.625 9 8.625C7.96447 8.625 7.125 7.78552 7.125 6.75C7.125 5.71447 7.96447 4.875 9 4.875C10.0355 4.875 10.875 5.71447 10.875 6.75Z" stroke="#03002F" stroke-width="1.5"/>
<path d="M13.6666 12.75C14.7125 14.2414 15.2128 15.0356 14.9149 15.6749C14.8849 15.7391 14.8499 15.8009 14.8102 15.86C14.3793 16.5 13.2656 16.5 11.0383 16.5H6.96167C4.73438 16.5 3.62074 16.5 3.18983 15.86C3.15004 15.8009 3.11504 15.7391 3.08516 15.6749C2.78714 15.0356 3.28744 14.2414 4.33333 12.75" stroke="#03002F" stroke-width="1.5" stroke-linecap="round" stroke-linejoin="round"/>
<path d="M9.94305 13.1202C9.69007 13.3638 9.35198 13.5 9.00015 13.5C8.64825 13.5 8.31015 13.3638 8.05717 13.1202C5.74072 10.8756 2.63639 8.36812 4.15028 4.7278C4.96882 2.75949 6.93371 1.5 9.00015 1.5C11.0666 1.5 13.0314 2.7595 13.85 4.7278C15.362 8.36355 12.2652 10.8833 9.94305 13.1202Z" stroke="#03002F" stroke-width="1.5"/>
</svg>
