<svg width="20" height="20" viewBox="0 0 20 20" fill="none" xmlns="http://www.w3.org/2000/svg">
<g clip-path="url(#clip0_2496_2592)">
<path d="M11.6665 18.3333V6.66666C11.6665 4.30964 11.6665 3.13113 10.9343 2.3989C10.202 1.66666 9.0235 1.66666 6.6665 1.66666C4.30948 1.66666 3.13097 1.66666 2.39874 2.3989C1.6665 3.13113 1.6665 4.30964 1.6665 6.66666V13.3333C1.6665 15.6903 1.6665 16.8688 2.39874 17.6011C3.13097 18.3333 4.30948 18.3333 6.6665 18.3333H11.6665Z" stroke="#0A4BB8" stroke-width="1.5" stroke-linecap="round"/>
<path d="M5.41683 9.16667H4.5835M8.75016 9.16667H7.91683M5.41683 5.83334H4.5835M5.41683 12.5H4.5835M8.75016 5.83334H7.91683M8.75016 12.5H7.91683" stroke="#0A4BB8" stroke-width="1.5" stroke-linecap="round"/>
<path d="M15.4168 12.5H14.5835M15.4168 9.16666H14.5835" stroke="#0A4BB8" stroke-width="1.5" stroke-linecap="round"/>
<path d="M14.9998 6.66666H11.6665V18.3333H14.9998C16.5712 18.3333 17.3568 18.3333 17.845 17.8452C18.3332 17.357 18.3332 16.5713 18.3332 15V10C18.3332 8.42866 18.3332 7.64297 17.845 7.15482C17.3568 6.66666 16.5712 6.66666 14.9998 6.66666Z" stroke="#0A4BB8" stroke-width="1.5" stroke-linecap="round"/>
</g>
<defs>
<clipPath id="clip0_2496_2592">
<rect width="20" height="20" fill="white"/>
</clipPath>
</defs>
</svg>
