<svg width="18" height="18" viewBox="0 0 18 18" fill="none" xmlns="http://www.w3.org/2000/svg">
<path d="M14.8367 8.3419C15.0476 6.88666 15.1049 6.72153 14.8367 6.05583C14.5598 5.36851 13.9456 4.89824 12.717 3.95772L11.7991 3.255C10.2709 2.085 9.5067 1.5 8.625 1.5C7.7433 1.5 6.97916 2.085 5.45088 3.255L4.53298 3.95772C3.30444 4.89824 2.69017 5.36851 2.4133 6.05583C2.13643 6.74315 2.24896 7.51845 2.47401 9.06908L2.66592 10.3914C2.98495 12.5895 3.14447 13.6886 3.88901 14.3443C4.63355 15 4.94803 15 7.125 15V14.9987" stroke="#03002F" stroke-width="1.5" stroke-linecap="round" stroke-linejoin="round"/>
<path d="M14.25 11.8879C14.25 13.8938 12.0326 15.3495 11.4105 15.7068C11.3102 15.7644 11.1899 15.7644 11.0895 15.7068C10.4674 15.3495 8.25 13.8938 8.25 11.8879C8.25 10.35 9.59315 9 11.25 9C12.9068 9 14.25 10.35 14.25 11.8879Z" stroke="#03002F" stroke-width="1.5"/>
<path d="M11.25 12H11.2567" stroke="#03002F" stroke-width="2" stroke-linecap="round" stroke-linejoin="round"/>
</svg>
