<svg width="80" height="58" viewBox="0 0 80 58" fill="none" xmlns="http://www.w3.org/2000/svg">
<path d="M60.7267 40.5767L51.0038 24.2454C51.0791 24.372 49.9933 22.6104 49.9933 22.6104C49.6565 22.0551 49.1166 21.6567 48.4909 21.5017C47.8652 21.3467 47.2042 21.4477 46.6517 21.7828C46.3787 21.947 46.1405 22.1643 45.951 22.4222C45.7616 22.6801 45.6245 22.9733 45.5478 23.2851C45.4711 23.5968 45.4562 23.9208 45.5041 24.2384C45.552 24.5559 45.6617 24.8607 45.8268 25.1352L47.0818 27.2419L48.5802 29.7572C49.9992 32.1421 50.4231 34.9992 49.7585 37.7001C49.0939 40.4009 47.3954 42.7242 45.0365 44.1589C42.6777 45.5936 39.8518 46.0221 37.1804 45.3502C34.509 44.6783 32.2111 42.961 30.7921 40.5761L16.1023 15.9035C14.6833 13.5185 14.2594 10.6614 14.924 7.96056C15.5886 5.25971 17.2871 2.9364 19.646 1.50172C22.0049 0.067043 24.8308 -0.361479 27.5022 0.310432C30.1736 0.982343 32.4715 2.69965 33.8905 5.08455C33.8905 5.08455 36.7885 9.95128 40.0102 15.3631L40.638 16.4177L41.4631 17.6845C41.803 18.2464 42.3487 18.6497 42.9814 18.8066C43.6141 18.9635 44.2824 18.8613 44.8409 18.5222C45.3153 18.2438 45.679 17.8071 45.8694 17.287C45.9921 16.9523 46.0439 16.5953 46.0213 16.2391C45.9864 15.6286 45.3187 14.4019 45.461 14.703C45.3335 14.4329 45.1601 14.0424 44.9769 13.5527C44.9573 13.4005 44.9232 13.2505 44.8752 13.1049C44.2554 10.6636 44.5253 8.07837 45.6354 5.82166C46.7456 3.56494 48.6219 1.78749 50.9214 0.814178C53.221 -0.159138 55.7901 -0.26332 58.1594 0.520682C60.5286 1.30468 62.5397 2.92452 63.8251 5.0841L78.5147 29.7568C79.2173 30.9376 79.683 32.2469 79.8852 33.6097C80.0874 34.9726 80.0221 36.3623 79.693 37.6996C79.364 39.0369 78.7776 40.2956 77.9674 41.4038C77.1572 42.512 76.139 43.4481 74.9711 44.1584C73.8031 44.8688 72.5081 45.3396 71.1602 45.5441C69.8122 45.7485 68.4376 45.6824 67.1149 45.3497C65.7922 45.0171 64.5472 44.4242 63.4511 43.6051C62.355 42.786 61.4292 41.7566 60.7266 40.5757L60.7267 40.5767ZM0 35.4541C0 33.4387 0.591089 31.4686 1.69853 29.7929C2.80597 28.1172 4.38002 26.8112 6.22163 26.04C8.06324 25.2687 10.0897 25.0669 12.0447 25.4601C13.9998 25.8533 15.7956 26.8238 17.2051 28.2488C18.6146 29.6739 19.5745 31.4895 19.9634 33.4661C20.3522 35.4427 20.1526 37.4916 19.3898 39.3535C18.627 41.2154 17.3352 42.8068 15.6778 43.9265C14.0204 45.0462 12.0718 45.6438 10.0785 45.6438C7.40552 45.6438 4.84202 44.5702 2.95193 42.6593C1.06185 40.7483 0 38.1565 0 35.4541Z" fill="#A45785"/>
<path d="M2.70433 57.1781H1.16912L0.95065 57.8774H0L1.3935 53.5836H2.47405L3.87346 57.8774H2.9169L2.70433 57.1781ZM1.43483 56.3194H2.43862L1.93673 54.7L1.43483 56.3194Z" fill="#272126"/>
<path d="M7.27809 57.0984C7.27809 57.0984 8.06341 57.1106 8.06341 56.7242C8.06341 56.4788 7.70323 56.3194 7.21905 56.209C6.57544 56.0617 5.6366 55.7857 5.6366 54.8411C5.6366 53.9333 6.46915 53.4609 7.22495 53.4609C7.98665 53.4609 8.57712 53.8167 8.96092 54.3626L8.18151 54.9147C8.02799 54.6387 7.65009 54.3626 7.24857 54.3626C7.01829 54.3626 6.62268 54.4853 6.62268 54.792C6.62268 55.0558 6.97105 55.1478 7.408 55.2643C8.09884 55.4483 9.04949 55.7182 9.04949 56.6935C9.04949 57.583 8.14017 57.9939 7.26628 57.9939C6.55772 57.9939 5.83736 57.6075 5.47127 57.0432L6.28611 56.5402C6.45735 56.8469 6.92381 57.0984 7.27809 57.0984Z" fill="#272126"/>
<path d="M11.1167 53.5836H12.0496V57.8774H11.1167V53.5836Z" fill="#272126"/>
<path d="M15.8046 57.0984C15.8046 57.0984 16.5899 57.1106 16.5899 56.7242C16.5899 56.4788 16.2297 56.3194 15.7455 56.209C15.1019 56.0617 14.1631 55.7857 14.1631 54.8411C14.1631 53.9333 14.9956 53.4609 15.7514 53.4609C16.5131 53.4609 17.1036 53.8167 17.4874 54.3626L16.708 54.9147C16.5545 54.6387 16.1766 54.3626 15.775 54.3626C15.5448 54.3626 15.1491 54.4853 15.1491 54.792C15.1491 55.0558 15.4975 55.1478 15.9345 55.2643C16.6253 55.4483 17.576 55.7182 17.576 56.6935C17.576 57.583 16.6666 57.9939 15.7928 57.9939C15.0842 57.9939 14.3638 57.6075 13.9977 57.0432L14.8126 56.5402C14.9838 56.8469 15.4503 57.0984 15.8046 57.0984Z" fill="#272126"/>
<path d="M21.4409 57.8774H20.4962V54.4424H19.2326V53.5836H22.7045V54.4424H21.4409V57.8774Z" fill="#272126"/>
<path d="M27.5995 57.0186V57.8774H24.7122V53.5836H27.4519V54.4424H25.6569V55.3011H26.8142V56.1599H25.6569V57.0186H27.5995Z" fill="#272126"/>
<path d="M32.4942 57.0186V57.8774H29.6068V53.5836H32.3466V54.4424H30.5515V55.3011H31.7089V56.1599H30.5515V57.0186H32.4942Z" fill="#272126"/>
<path d="M39.2683 58.0001C38.0756 58.0001 37.0836 56.9941 37.0836 55.7305C37.0836 54.4914 38.052 53.4609 39.2683 53.4609C39.971 53.4609 40.6028 53.7738 41.0161 54.3626L40.2308 54.9147C40.0418 54.6019 39.6757 54.3626 39.2683 54.3626C38.5539 54.3626 38.0697 54.9883 38.0697 55.7305C38.0697 56.4727 38.5539 57.0984 39.2683 57.0984C39.6757 57.0984 40.0241 56.8898 40.2367 56.5402L41.0515 57.0432C40.6441 57.632 39.971 58.0001 39.2683 58.0001Z" fill="#272126"/>
<path d="M42.9972 56.2335V53.5836H43.942V56.258C43.942 56.7242 44.2431 57.0984 44.6978 57.0984C45.1406 57.0984 45.4477 56.7242 45.4477 56.258V53.5836H46.3924V56.2335C46.3924 57.3008 45.6366 58.0001 44.6978 58.0001C43.7649 58.0001 42.9972 57.356 42.9972 56.2335Z" fill="#272126"/>
<path d="M50.0897 57.0984C50.0897 57.0984 50.875 57.1106 50.875 56.7242C50.875 56.4788 50.5148 56.3194 50.0306 56.209C49.387 56.0617 48.4482 55.7857 48.4482 54.8411C48.4482 53.9333 49.2807 53.4609 50.0365 53.4609C50.7982 53.4609 51.3887 53.8167 51.7725 54.3626L50.9931 54.9147C50.8396 54.6387 50.4617 54.3626 50.0601 54.3626C49.8299 54.3626 49.4342 54.4853 49.4342 54.792C49.4342 55.0558 49.7826 55.1478 50.2196 55.2643C50.9104 55.4483 51.8611 55.7182 51.8611 56.6935C51.8611 57.583 50.9517 57.9939 50.0779 57.9939C49.3693 57.9939 48.6489 57.6075 48.2828 57.0432L49.0977 56.5402C49.2689 56.8469 49.7354 57.0984 50.0897 57.0984Z" fill="#272126"/>
<path d="M55.726 57.8774H54.7813V54.4424H53.5177V53.5836H56.9896V54.4424H55.726V57.8774Z" fill="#272126"/>
<path d="M58.7034 55.7305C58.7034 54.4853 59.7131 53.4609 60.8881 53.4609C62.0868 53.4609 63.0729 54.516 63.0729 55.7305C63.0729 56.9696 62.0573 58.0001 60.8881 58.0001C59.66 58.0001 58.7034 56.9082 58.7034 55.7305ZM59.6895 55.7305C59.719 56.442 60.1796 57.0984 60.8881 57.0984C61.6026 57.0984 62.0868 56.3991 62.0868 55.7305C62.0868 55.019 61.5672 54.3626 60.8881 54.3626C60.1737 54.3626 59.6895 55.0558 59.6895 55.7305Z" fill="#272126"/>
<path d="M67.0136 56.5831L66.1456 55.3073V57.8774H65.2008V53.5836H66.1456L67.2675 55.3931L68.3953 53.5836H69.34V57.8774H68.3953V55.3073L67.5214 56.5831H67.0136Z" fill="#272126"/>
<path d="M74.5917 57.0186V57.8774H71.7043V53.5836H74.444V54.4424H72.649V55.3011H73.8063V56.1599H72.649V57.0186H74.5917Z" fill="#272126"/>
<path d="M79.7579 55.068C79.7579 55.6998 79.3741 56.2458 78.8309 56.4604L80 57.8774H78.8427L77.7503 56.5525H77.5437V57.8774H76.5989V53.5836H78.329C79.1143 53.5836 79.7579 54.24 79.7579 55.068ZM78.1755 54.4424H77.5437V55.6937H78.1755C78.5061 55.6937 78.7777 55.4115 78.7777 55.068C78.7777 54.7245 78.5061 54.4424 78.1755 54.4424Z" fill="#272126"/>
</svg>
