<svg width="160" height="115" viewBox="0 0 160 115" fill="none" xmlns="http://www.w3.org/2000/svg">
<path d="M121.453 80.4539L102.008 48.0727C102.158 48.3239 99.9866 44.831 99.9866 44.831C99.3131 43.73 98.2333 42.94 96.9818 42.6327C95.7303 42.3254 94.4084 42.5257 93.3035 43.19C92.7573 43.5157 92.281 43.9466 91.9021 44.4578C91.5231 44.9691 91.249 45.5506 91.0956 46.1686C90.9422 46.7867 90.9125 47.4292 91.0083 48.0588C91.104 48.6885 91.3234 49.2929 91.6536 49.837L94.1636 54.0141L97.1604 59.0014C99.9984 63.7301 100.846 69.3951 99.517 74.7502C98.1879 80.1053 94.7908 84.7118 90.0731 87.5564C85.3554 90.401 79.7035 91.2507 74.3608 89.9185C69.0181 88.5863 64.4222 85.1813 61.5842 80.4527L32.2046 31.5327C29.3666 26.804 28.5189 21.139 29.848 15.7839C31.1772 10.4287 34.5743 5.82216 39.292 2.97755C44.0098 0.13293 49.6617 -0.716725 55.0044 0.615512C60.3471 1.94775 64.9431 5.35275 67.7811 10.0814C67.7811 10.0814 73.577 19.731 80.0203 30.4613L81.2761 32.5523L82.9262 35.0642C83.606 36.1782 84.6975 36.9778 85.9628 37.2889C87.2281 37.6 88.5649 37.3973 89.6818 36.7251C90.6306 36.1731 91.358 35.3071 91.7388 34.2759C91.9842 33.6124 92.0877 32.9045 92.0426 32.1982C91.9728 30.9878 90.6373 28.5555 90.9219 29.1526C90.6671 28.617 90.3203 27.8427 89.9538 26.8717C89.9146 26.5699 89.8465 26.2726 89.7504 25.9839C88.5109 21.1434 89.0506 16.0175 91.2709 11.5429C93.4912 7.06842 97.2438 3.54417 101.843 1.61432C106.442 -0.315532 111.58 -0.5221 116.319 1.03239C121.057 2.58688 125.079 5.79862 127.65 10.0805L157.029 59.0005C158.435 61.3419 159.366 63.9378 159.77 66.64C160.175 69.3421 160.044 72.0977 159.386 74.7492C158.728 77.4008 157.555 79.8965 155.935 82.0938C154.314 84.2911 152.278 86.147 149.942 87.5555C147.606 88.964 145.016 89.8976 142.32 90.3029C139.624 90.7081 136.875 90.5772 134.23 89.9176C131.584 89.258 129.094 88.0825 126.902 86.4584C124.71 84.8342 122.858 82.7932 121.453 80.4518L121.453 80.4539ZM0 70.2968C0 66.3009 1.18218 62.3947 3.39706 59.0722C5.61194 55.7497 8.76005 53.1602 12.4433 51.631C16.1265 50.1018 20.1794 49.7017 24.0894 50.4813C27.9995 51.2608 31.5911 53.1851 34.4101 56.0106C37.2292 58.8362 39.1489 62.4361 39.9267 66.3553C40.7045 70.2744 40.3053 74.3367 38.7796 78.0285C37.254 81.7202 34.6705 84.8756 31.3557 87.0957C28.0409 89.3157 24.1437 90.5006 20.157 90.5006C14.811 90.5006 9.68404 88.372 5.90387 84.583C2.1237 80.7941 0 75.6552 0 70.2968Z" fill="white"/>
<path d="M5.40867 113.37H2.33825L1.9013 114.757H0L2.787 106.243H4.9481L7.74691 114.757H5.8338L5.40867 113.37ZM2.86966 111.668H4.87725L3.87346 108.457L2.86966 111.668Z" fill="white"/>
<path d="M14.5562 113.212C14.5562 113.212 16.1268 113.236 16.1268 112.47C16.1268 111.984 15.4065 111.668 14.4381 111.449C13.1509 111.157 11.2732 110.609 11.2732 108.736C11.2732 106.936 12.9383 106 14.4499 106C15.9733 106 17.1542 106.705 17.9218 107.788L16.363 108.882C16.056 108.335 15.3002 107.788 14.4971 107.788C14.0366 107.788 13.2454 108.031 13.2454 108.639C13.2454 109.162 13.9421 109.345 14.816 109.576C16.1977 109.941 18.099 110.476 18.099 112.409C18.099 114.173 16.2803 114.988 14.5326 114.988C13.1154 114.988 11.6747 114.222 10.9425 113.103L12.5722 112.105C12.9147 112.714 13.8476 113.212 14.5562 113.212Z" fill="white"/>
<path d="M22.2334 106.243H24.0992V114.757H22.2334V106.243Z" fill="white"/>
<path d="M31.6091 113.212C31.6091 113.212 33.1798 113.236 33.1798 112.47C33.1798 111.984 32.4594 111.668 31.491 111.449C30.2038 111.157 28.3261 110.609 28.3261 108.736C28.3261 106.936 29.9912 106 31.5028 106C33.0262 106 34.2072 106.705 34.9748 107.788L33.4159 108.882C33.1089 108.335 32.3531 107.788 31.5501 107.788C31.0895 107.788 30.2983 108.031 30.2983 108.639C30.2983 109.162 30.995 109.345 31.8689 109.576C33.2506 109.941 35.1519 110.476 35.1519 112.409C35.1519 114.173 33.3333 114.988 31.5855 114.988C30.1684 114.988 28.7276 114.222 27.9955 113.103L29.6252 112.105C29.9676 112.714 30.9006 113.212 31.6091 113.212Z" fill="white"/>
<path d="M42.8819 114.757H40.9924V107.946H38.4652V106.243H45.409V107.946H42.8819V114.757Z" fill="white"/>
<path d="M55.1991 113.054V114.757H49.4243V106.243H54.9038V107.946H51.3138V109.649H53.6284V111.351H51.3138V113.054H55.1991Z" fill="white"/>
<path d="M64.9883 113.054V114.757H59.2136V106.243H64.6931V107.946H61.1031V109.649H63.4177V111.351H61.1031V113.054H64.9883Z" fill="white"/>
<path d="M78.5366 115C76.1511 115 74.1672 113.005 74.1672 110.5C74.1672 108.043 76.1039 106 78.5366 106C79.9419 106 81.2055 106.62 82.0322 107.788L80.4615 108.882C80.0836 108.262 79.3515 107.788 78.5366 107.788C77.1077 107.788 76.1393 109.028 76.1393 110.5C76.1393 111.972 77.1077 113.212 78.5366 113.212C79.3515 113.212 80.0482 112.799 80.4734 112.105L82.103 113.103C81.2882 114.27 79.9419 115 78.5366 115Z" fill="white"/>
<path d="M85.9945 111.497V106.243H87.884V111.546C87.884 112.47 88.4863 113.212 89.3956 113.212C90.2813 113.212 90.8954 112.47 90.8954 111.546V106.243H92.7848V111.497C92.7848 113.614 91.2733 115 89.3956 115C87.5297 115 85.9945 113.723 85.9945 111.497Z" fill="white"/>
<path d="M100.179 113.212C100.179 113.212 101.75 113.236 101.75 112.47C101.75 111.984 101.03 111.668 100.061 111.449C98.774 111.157 96.8963 110.609 96.8963 108.736C96.8963 106.936 98.5614 106 100.073 106C101.596 106 102.777 106.705 103.545 107.788L101.986 108.882C101.679 108.335 100.923 107.788 100.12 107.788C99.6597 107.788 98.8685 108.031 98.8685 108.639C98.8685 109.162 99.5652 109.345 100.439 109.576C101.821 109.941 103.722 110.476 103.722 112.409C103.722 114.173 101.903 114.988 100.156 114.988C98.7386 114.988 97.2979 114.222 96.5657 113.103L98.1954 112.105C98.5378 112.714 99.4708 113.212 100.179 113.212Z" fill="white"/>
<path d="M111.452 114.757H109.563V107.946H107.035V106.243H113.979V107.946H111.452V114.757Z" fill="white"/>
<path d="M117.407 110.5C117.407 108.031 119.426 106 121.776 106C124.174 106 126.146 108.092 126.146 110.5C126.146 112.957 124.115 115 121.776 115C119.32 115 117.407 112.835 117.407 110.5ZM119.379 110.5C119.438 111.911 120.359 113.212 121.776 113.212C123.205 113.212 124.174 111.826 124.174 110.5C124.174 109.089 123.134 107.788 121.776 107.788C120.347 107.788 119.379 109.162 119.379 110.5Z" fill="white"/>
<path d="M134.027 112.191L132.291 109.661V114.757H130.402V106.243H132.291L134.535 109.831L136.791 106.243H138.68V114.757H136.791V109.661L135.043 112.191H134.027Z" fill="white"/>
<path d="M149.183 113.054V114.757H143.409V106.243H148.888V107.946H145.298V109.649H147.613V111.351H145.298V113.054H149.183Z" fill="white"/>
<path d="M159.516 109.186C159.516 110.439 158.748 111.522 157.662 111.947L160 114.757H157.685L155.501 112.13H155.087V114.757H153.198V106.243H156.658C158.229 106.243 159.516 107.545 159.516 109.186ZM156.351 107.946H155.087V110.427H156.351C157.012 110.427 157.555 109.868 157.555 109.186C157.555 108.505 157.012 107.946 156.351 107.946Z" fill="white"/>
</svg>
