<svg width="16" height="16" viewBox="0 0 16 16" fill="none" xmlns="http://www.w3.org/2000/svg">
<path d="M5.65446 11.9999H11.9815C12.7281 11.9999 13.3333 11.4051 13.3333 10.6713C13.3333 9.66659 11.9815 9.34265 11.9815 9.34265C11.9815 9.34265 9.52294 8.39752 6.66667 9.33325C6.66667 9.33325 6.574 5.91508 5.1399 2.1137C4.85696 1.36369 3.93413 1.10762 3.25693 1.55132C2.81005 1.84412 2.58714 2.37302 2.69247 2.89062L4.32885 10.9319C4.45522 11.5529 5.01005 11.9999 5.65446 11.9999Z" stroke="white" stroke-width="1.5" stroke-linecap="round" stroke-linejoin="round"/>
<path d="M8.33333 7H12" stroke="white" stroke-width="1.5" stroke-linecap="round" stroke-linejoin="round"/>
<path d="M10.6667 12L8.66666 14.6667M8.66666 14.6667H5.33333M8.66666 14.6667H12" stroke="white" stroke-width="1.5" stroke-linecap="round" stroke-linejoin="round"/>
</svg>
