<svg width="18" height="10" viewBox="0 0 18 10" fill="none" xmlns="http://www.w3.org/2000/svg">
<path d="M5.83028 5.17C7.09028 5.408 7.80428 6.094 7.80428 7.368C7.80428 9.048 6.53028 10 4.51428 10H0.440281V0.62H4.50028C6.54428 0.62 7.60828 1.502 7.60828 3.042C7.60828 4.176 7.03428 4.82 5.83028 5.114V5.17ZM4.20628 2.258H2.52628V4.442H4.20628C4.99028 4.442 5.50828 3.994 5.50828 3.294C5.50828 2.608 5.03228 2.258 4.20628 2.258ZM4.29028 8.362C5.13028 8.362 5.66228 7.914 5.66228 7.158C5.66228 6.416 5.11628 6.038 4.29028 6.038H2.52628V8.362H4.29028ZM9.29966 0.62H12.9257C15.8797 0.62 17.4477 2.65 17.4477 5.226C17.4477 7.9 15.8097 10 12.8417 10H9.29966V0.62ZM12.7157 8.208C14.5077 8.208 15.3197 6.976 15.3197 5.254C15.3197 3.644 14.5357 2.412 12.7017 2.412H11.3857V8.208H12.7157Z" fill="#03002F"/>
</svg>
