<svg width="24" height="24" viewBox="0 0 24 24" fill="none" xmlns="http://www.w3.org/2000/svg">
<path d="M14.7574 5.00439L21.8284 4.99707M18.2892 1.4652L18.2965 8.53626" stroke="#03002F" stroke-width="1.5" stroke-linecap="round" stroke-linejoin="round"/>
<path d="M6 22C7.65685 22 9 20.6569 9 19C9 17.3431 7.65685 16 6 16C4.34315 16 3 17.3431 3 19C3 20.6569 4.34315 22 6 22Z" stroke="#03002F" stroke-width="1.5" stroke-linecap="round" stroke-linejoin="round"/>
<path d="M12 5H8.5C6.567 5 5 6.567 5 8.5C5 10.433 6.567 12 8.5 12H15.5C17.433 12 19 13.567 19 15.5C19 17.433 17.433 19 15.5 19H12" stroke="#03002F" stroke-width="1.5" stroke-linecap="round" stroke-linejoin="round"/>
</svg>
