<svg width="20" height="20" viewBox="0 0 20 20" fill="none" xmlns="http://www.w3.org/2000/svg">
<g clip-path="url(#clip0_16217_1439)">
<path d="M7.49953 18.3333L7.29067 15.4093C7.17838 13.8372 8.4235 12.5 9.9995 12.5C11.5756 12.5 12.8207 13.8372 12.7084 15.4093L12.4995 18.3333" stroke="#03002F" stroke-width="1.5"/>
<path d="M1.95957 11.0113C1.66539 9.09691 1.5183 8.13977 1.88022 7.29123C2.24214 6.44268 3.04511 5.86211 4.65103 4.70096L5.85091 3.83341C7.84866 2.38897 8.84757 1.66675 10.0001 1.66675C11.1526 1.66675 12.1515 2.38897 14.1492 3.83341L15.3491 4.70096C16.9551 5.86211 17.7581 6.44268 18.12 7.29123C18.4819 8.13977 18.3348 9.09691 18.0406 11.0113L17.7897 12.6437C17.3727 15.3575 17.1641 16.7144 16.1909 17.5239C15.2176 18.3334 13.7948 18.3334 10.9491 18.3334H9.05107C6.20537 18.3334 4.78251 18.3334 3.80925 17.5239C2.83599 16.7144 2.62747 15.3575 2.21044 12.6437L1.95957 11.0113Z" stroke="#03002F" stroke-width="1.5" stroke-linejoin="round"/>
</g>
<defs>
<clipPath id="clip0_16217_1439">
<rect width="20" height="20" fill="white"/>
</clipPath>
</defs>
</svg>
