<svg width="18" height="18" viewBox="0 0 18 18" fill="none" xmlns="http://www.w3.org/2000/svg">
<path d="M4.50293 7.5V3.75M8.25292 7.5V3.75M12.0029 7.5V4.125" stroke="#03002F" stroke-width="1.5" stroke-linecap="round" stroke-linejoin="round"/>
<path d="M3.76206 12.75C2.6971 12.75 2.16462 12.75 1.83377 12.4205C1.50293 12.091 1.50293 11.5606 1.50293 10.5V6C1.50293 4.93934 1.50293 4.40901 1.83377 4.07951C2.16462 3.75 2.6971 3.75 3.76206 3.75H9.07537C11.6806 3.75 12.9832 3.75 13.9801 4.27968C14.7142 4.66975 15.3259 5.25413 15.7478 5.96839C16.3207 6.93833 16.3749 8.23455 16.4834 10.827C16.5126 11.5258 16.5272 11.8753 16.3906 12.1396C16.2903 12.334 16.1351 12.4951 15.9443 12.6031C15.6847 12.75 15.3337 12.75 14.6314 12.75H14.2529M6.75293 12.75H11.2529" stroke="#03002F" stroke-width="1.5" stroke-linecap="round" stroke-linejoin="round"/>
<path d="M5.25293 14.25C6.08136 14.25 6.75293 13.5784 6.75293 12.75C6.75293 11.9216 6.08136 11.25 5.25293 11.25C4.4245 11.25 3.75293 11.9216 3.75293 12.75C3.75293 13.5784 4.4245 14.25 5.25293 14.25Z" stroke="#03002F" stroke-width="1.5"/>
<path d="M12.7529 14.25C13.5814 14.25 14.2529 13.5784 14.2529 12.75C14.2529 11.9216 13.5814 11.25 12.7529 11.25C11.9245 11.25 11.2529 11.9216 11.2529 12.75C11.2529 13.5784 11.9245 14.25 12.7529 14.25Z" stroke="#03002F" stroke-width="1.5"/>
<path d="M1.49707 7.50098H11.5231C11.9933 7.50098 12.1531 7.77638 12.5131 8.20838C12.9271 8.61338 13.207 8.89748 13.5931 8.95538C14.1331 9.03638 16.1311 8.99588 16.1311 8.99588" stroke="#03002F" stroke-width="1.5" stroke-linecap="round"/>
</svg>
