<svg width="16" height="16" viewBox="0 0 16 16" fill="none" xmlns="http://www.w3.org/2000/svg">
<path d="M4.00269 6.66659V3.33325M7.33601 6.66659V3.33325M10.6693 6.66659V3.66659" stroke="#03002F" stroke-linecap="round" stroke-linejoin="round"/>
<path d="M3.34406 11.3333C2.39742 11.3333 1.9241 11.3333 1.63002 11.0404C1.33594 10.7475 1.33594 10.2761 1.33594 9.33325V5.33325C1.33594 4.39045 1.33594 3.91904 1.63002 3.62615C1.9241 3.33325 2.39742 3.33325 3.34406 3.33325H8.067C10.3828 3.33325 11.5407 3.33325 12.4268 3.80408C13.0793 4.15081 13.6231 4.67025 13.9981 5.30516C14.5073 6.16733 14.5555 7.31952 14.6519 9.62392C14.6779 10.2451 14.6909 10.5557 14.5695 10.7907C14.4803 10.9635 14.3423 11.1067 14.1727 11.2027C13.942 11.3333 13.6299 11.3333 13.0057 11.3333H12.6693M6.0026 11.3333H10.0026" stroke="#03002F" stroke-linecap="round" stroke-linejoin="round"/>
<path d="M4.66927 12.6667C5.40565 12.6667 6.0026 12.0697 6.0026 11.3333C6.0026 10.5969 5.40565 10 4.66927 10C3.93289 10 3.33594 10.5969 3.33594 11.3333C3.33594 12.0697 3.93289 12.6667 4.66927 12.6667Z" stroke="#03002F"/>
<path d="M11.336 12.6667C12.0724 12.6667 12.6694 12.0697 12.6694 11.3333C12.6694 10.5969 12.0724 10 11.336 10C10.5996 10 10.0027 10.5969 10.0027 11.3333C10.0027 12.0697 10.5996 12.6667 11.336 12.6667Z" stroke="#03002F"/>
<path d="M1.33081 6.66724H10.2428C10.6608 6.66724 10.8028 6.91204 11.1228 7.29604C11.4908 7.65604 11.7396 7.90857 12.0828 7.96004C12.5628 8.03204 14.3388 7.99604 14.3388 7.99604" stroke="#03002F" stroke-linecap="round"/>
</svg>
