<svg width="114" height="120" viewBox="0 0 114 120" fill="none" xmlns="http://www.w3.org/2000/svg">
<g opacity="0.14">
<path d="M30.0196 50V25M55.0195 50V25M80.0195 50V27.5" stroke="#F0FFD7" stroke-width="7.5" stroke-linecap="round" stroke-linejoin="round"/>
<path d="M25.0805 85C17.9807 85 14.4308 85 12.2252 82.8035C10.0196 80.6065 10.0196 77.071 10.0196 70V40C10.0196 32.929 10.0196 29.3934 12.2252 27.1967C14.4308 25 17.9807 25 25.0805 25H60.5025C77.871 25 86.555 25 93.201 28.5312C98.095 31.1317 102.173 35.0275 104.986 39.7893C108.805 46.2555 109.166 54.897 109.89 72.18C110.084 76.839 110.182 79.1685 109.271 80.931C108.602 82.227 107.568 83.3005 106.296 84.0205C104.565 85 102.225 85 97.5425 85H95.0195M45.0196 85H75.0195" stroke="#F0FFD7" stroke-width="7.5" stroke-linecap="round" stroke-linejoin="round"/>
<path d="M35.0196 95C40.5424 95 45.0196 90.523 45.0196 85C45.0196 79.477 40.5424 75 35.0196 75C29.4967 75 25.0196 79.477 25.0196 85C25.0196 90.523 29.4967 95 35.0196 95Z" stroke="#F0FFD7" stroke-width="7.5"/>
<path d="M85.0195 95C90.5425 95 95.0195 90.523 95.0195 85C95.0195 79.477 90.5425 75 85.0195 75C79.4965 75 75.0195 79.477 75.0195 85C75.0195 90.523 79.4965 95 85.0195 95Z" stroke="#F0FFD7" stroke-width="7.5"/>
<path d="M9.98044 50.0049H76.8205C79.9555 50.0049 81.0205 51.8409 83.4205 54.7209C86.1805 57.4209 88.0465 59.3149 90.6205 59.7009C94.2205 60.2409 107.54 59.9709 107.54 59.9709" stroke="#F0FFD7" stroke-width="7.5" stroke-linecap="round"/>
</g>
</svg>
