<svg width="14" height="14" viewBox="0 0 14 14" fill="none" xmlns="http://www.w3.org/2000/svg">
<g clip-path="url(#clip0_5316_6072)">
<path d="M10.5 1.16675V2.33341M3.5 1.16675V2.33341" stroke="#0A4BB8" stroke-width="1.2" stroke-linecap="round" stroke-linejoin="round"/>
<path d="M6.9974 7.58325H7.00265M6.9974 9.91659H7.00265M9.3281 7.58325H9.33335M4.66669 7.58325H4.67192M4.66669 9.91659H4.67192" stroke="#0A4BB8" stroke-width="1.2" stroke-linecap="round" stroke-linejoin="round"/>
<path d="M2.04169 4.66675H11.9584" stroke="#0A4BB8" stroke-width="1.2" stroke-linecap="round" stroke-linejoin="round"/>
<path d="M1.45831 7.14187C1.45831 4.60013 1.45831 3.32925 2.18872 2.53962C2.91912 1.75 4.09468 1.75 6.44581 1.75H7.55415C9.90527 1.75 11.0809 1.75 11.8113 2.53962C12.5416 3.32925 12.5416 4.60013 12.5416 7.14187V7.44147C12.5416 9.98322 12.5416 11.2541 11.8113 12.0437C11.0809 12.8333 9.90527 12.8333 7.55415 12.8333H6.44581C4.09468 12.8333 2.91912 12.8333 2.18872 12.0437C1.45831 11.2541 1.45831 9.98322 1.45831 7.44147V7.14187Z" stroke="#0A4BB8" stroke-width="1.2" stroke-linecap="round" stroke-linejoin="round"/>
<path d="M1.75 4.66675H12.25" stroke="#0A4BB8" stroke-width="1.2" stroke-linecap="round" stroke-linejoin="round"/>
</g>
<defs>
<clipPath id="clip0_5316_6072">
<rect width="14" height="14" fill="white"/>
</clipPath>
</defs>
</svg>
