<svg width="21" height="20" viewBox="0 0 21 20" fill="none" xmlns="http://www.w3.org/2000/svg">
<path d="M6.33366 5.00046C5.31646 5.00351 4.75351 5.02784 4.29093 5.222C3.64299 5.49396 3.11533 5.99632 2.80708 6.63471C2.55547 7.15577 2.51431 7.82337 2.43196 9.15858L2.30292 11.2508C2.09815 14.5712 1.99576 16.2313 2.97006 17.2823C3.94436 18.3333 5.58576 18.3333 8.86859 18.3333H12.1321C15.4149 18.3333 17.0563 18.3333 18.0306 17.2823C19.0049 16.2313 18.9025 14.5712 18.6978 11.2508L18.5687 9.15858C18.4863 7.82337 18.4452 7.15577 18.1936 6.63471C17.8853 5.99632 17.3577 5.49396 16.7098 5.222C16.2472 5.02784 15.6842 5.00351 14.667 5.00046" stroke="#0A4BB8" stroke-width="1.5" stroke-linecap="round"/>
<path d="M14.6668 5.83332L13.9287 3.98785C13.6102 3.19162 13.333 2.28841 12.514 1.88295C12.0772 1.66666 11.5515 1.66666 10.5002 1.66666C9.44883 1.66666 8.92316 1.66666 8.48629 1.88295C7.66733 2.28841 7.39017 3.19162 7.07169 3.98785L6.3335 5.83332" stroke="#0A4BB8" stroke-width="1.5" stroke-linecap="round" stroke-linejoin="round"/>
<path d="M13.4168 11.6667C13.4168 13.2775 12.111 14.5833 10.5002 14.5833C8.88933 14.5833 7.5835 13.2775 7.5835 11.6667C7.5835 10.0558 8.88933 8.75 10.5002 8.75C12.111 8.75 13.4168 10.0558 13.4168 11.6667Z" stroke="#0A4BB8" stroke-width="1.5"/>
<path d="M10.5 5H10.5075" stroke="#0A4BB8" stroke-width="2" stroke-linecap="round" stroke-linejoin="round"/>
</svg>
