<svg width="14" height="14" viewBox="0 0 14 14" fill="none" xmlns="http://www.w3.org/2000/svg">
<g clip-path="url(#clip0_5316_6083)">
<path d="M7.00002 12.8334C10.2217 12.8334 12.8334 10.2217 12.8334 7.00008C12.8334 3.77842 10.2217 1.16675 7.00002 1.16675C3.77836 1.16675 1.16669 3.77842 1.16669 7.00008C1.16669 10.2217 3.77836 12.8334 7.00002 12.8334Z" stroke="#0A4BB8" stroke-width="1.2"/>
<path d="M7.00458 6.12979C6.52134 6.12979 6.12958 6.52155 6.12958 7.00479C6.12958 7.48802 6.52134 7.87978 7.00458 7.87978C7.48781 7.87978 7.87958 7.48802 7.87958 7.00479C7.87958 6.52155 7.48781 6.12979 7.00458 6.12979ZM7.00458 6.12979V4.08276M8.7586 8.76155L7.62192 7.62487" stroke="#0A4BB8" stroke-width="1.2" stroke-linecap="round" stroke-linejoin="round"/>
</g>
<defs>
<clipPath id="clip0_5316_6083">
<rect width="14" height="14" fill="white"/>
</clipPath>
</defs>
</svg>
