<svg width="20" height="20" viewBox="0 0 20 20" fill="none" xmlns="http://www.w3.org/2000/svg">
<path d="M5.00008 13.3333C4.22511 13.3333 3.83761 13.3333 3.5197 13.2482C2.65697 13.017 1.9831 12.3431 1.75193 11.4804C1.66675 11.1625 1.66675 10.775 1.66675 9.99999C1.66675 9.22499 1.66675 8.83749 1.75193 8.51957C1.9831 7.65688 2.65697 6.98301 3.5197 6.75184C3.83761 6.66666 4.22511 6.66666 5.00008 6.66666M10.0001 13.3333H15.0001C15.7751 13.3333 16.1626 13.3333 16.4805 13.2482C17.3432 13.017 18.0171 12.3431 18.2482 11.4804C18.3334 11.1625 18.3334 10.775 18.3334 9.99999C18.3334 9.22499 18.3334 8.83749 18.2482 8.51957C18.0171 7.65688 17.3432 6.98301 16.4805 6.75184C16.1626 6.66666 15.7751 6.66666 15.0001 6.66666H10.0001" stroke="#0A4BB8" stroke-width="1.5" stroke-linecap="round"/>
<path d="M5.83325 2.5H7.49992M7.49992 2.5H9.16659M7.49992 2.5V17.5M7.49992 17.5H5.83325M7.49992 17.5H9.16659" stroke="#0A4BB8" stroke-width="1.5" stroke-linecap="round" stroke-linejoin="round"/>
</svg>
