<svg width="16" height="16" viewBox="0 0 16 16" fill="none" xmlns="http://www.w3.org/2000/svg">
<path d="M13 3.66699L12.7321 7.33779M3 3.66699L3.40307 10.3502C3.5063 12.0618 3.55792 12.9176 3.98579 13.533C4.19733 13.8373 4.46987 14.0941 4.78603 14.2871C5.23357 14.5603 5.78739 14.6424 6.66667 14.667" stroke="white" stroke-width="1.5" stroke-linecap="round"/>
<path d="M2 3.66634H14M10.7038 3.66634L10.2487 2.72749C9.9464 2.10385 9.7952 1.79202 9.53447 1.59755C9.47667 1.55441 9.4154 1.51603 9.35133 1.48281C9.0626 1.33301 8.71607 1.33301 8.023 1.33301C7.31253 1.33301 6.95733 1.33301 6.66379 1.48909C6.59873 1.52368 6.53665 1.56361 6.47819 1.60845C6.21443 1.81081 6.06709 2.13404 5.77241 2.78051L5.36861 3.66634" stroke="white" stroke-width="1.5" stroke-linecap="round"/>
<path d="M10.3704 8.88867C11.6532 8.88867 12.7407 9.96413 12.7407 11.2689C12.7407 12.5944 11.6354 13.5246 10.6145 14.1571C10.5401 14.1997 10.456 14.222 10.3704 14.222C10.2847 14.222 10.2007 14.1997 10.1262 14.1571C9.1072 13.5184 8 12.599 8 11.2689C8 9.96413 9.08759 8.88867 10.3704 8.88867Z" stroke="white" stroke-width="1.5"/>
<path d="M10.3706 11.2588H10.3766" stroke="white" stroke-width="2" stroke-linecap="round" stroke-linejoin="round"/>
</svg>
