<svg width="18" height="18" viewBox="0 0 20 20" fill="none" xmlns="http://www.w3.org/2000/svg">
    <path
        d="M5.83333 7.08333L8.28502 8.53283C9.71433 9.37791 10.2857 9.37791 11.715 8.53283L14.1667 7.08333"
        stroke="#FFF" stroke-width="1.5" stroke-linecap="round" stroke-linejoin="round" />
    <path
        d="M1.6798 11.2297C1.73428 13.7842 1.76152 15.0616 2.70413 16.0077C3.64674 16.954 4.95861 16.9869 7.58236 17.0528C9.19942 17.0935 10.8006 17.0935 12.4177 17.0528C15.0414 16.9869 16.3533 16.954 17.2958 16.0077C18.2385 15.0616 18.2658 13.7842 18.3202 11.2297C18.3378 10.4083 18.3378 9.59167 18.3202 8.77033C18.2658 6.21569 18.2385 4.93838 17.2958 3.99219C16.3533 3.046 15.0414 3.01304 12.4177 2.94712C10.8006 2.90648 9.19942 2.90648 7.58235 2.94711C4.95861 3.01303 3.64674 3.04598 2.70413 3.99218C1.76152 4.93838 1.73428 6.21568 1.6798 8.77025C1.66228 9.59167 1.66228 10.4083 1.6798 11.2297Z"
        stroke="#FFF" stroke-width="1.5" stroke-linejoin="round" />
</svg>
