<svg width="20" height="20" viewBox="0 0 20 20" fill="none" xmlns="http://www.w3.org/2000/svg">
    <path
        d="M12.1092 7.89166L7.89258 12.1083C7.35091 11.5667 7.01758 10.825 7.01758 10C7.01758 8.35 8.35091 7.01666 10.0009 7.01666C10.8259 7.01666 11.5676 7.35 12.1092 7.89166Z"
        stroke="#0A4BB8" stroke-width="1.5" stroke-linecap="round" stroke-linejoin="round" />
    <path
        d="M14.8499 4.80834C13.3915 3.70834 11.7249 3.10834 9.99987 3.10834C7.0582 3.10834 4.31654 4.84167 2.4082 7.84167C1.6582 9.01667 1.6582 10.9917 2.4082 12.1667C3.06654 13.2 3.8332 14.0917 4.66654 14.8083"
        stroke="#0A4BB8" stroke-width="1.5" stroke-linecap="round" stroke-linejoin="round" />
    <path
        d="M7.01758 16.275C7.96758 16.675 8.97591 16.8917 10.0009 16.8917C12.9426 16.8917 15.6842 15.1583 17.5926 12.1583C18.3426 10.9833 18.3426 9.00834 17.5926 7.83334C17.3176 7.4 17.0176 6.99167 16.7092 6.60834"
        stroke="#0A4BB8" stroke-width="1.5" stroke-linecap="round" stroke-linejoin="round" />
    <path d="M12.9242 10.5833C12.7076 11.7583 11.7492 12.7167 10.5742 12.9333" stroke="#0A4BB8"
        stroke-width="1.5" stroke-linecap="round" stroke-linejoin="round" />
    <path d="M7.89102 12.1083L1.66602 18.3333" stroke="#0A4BB8" stroke-width="1.5"
        stroke-linecap="round" stroke-linejoin="round" />
    <path d="M18.3324 1.66667L12.1074 7.89167" stroke="#0A4BB8" stroke-width="1.5"
        stroke-linecap="round" stroke-linejoin="round" />
</svg>
