<svg width="20" height="20" viewBox="0 0 20 20" fill="none" xmlns="http://www.w3.org/2000/svg">
<path d="M17.0831 8.74999V8.33332C17.0831 5.19062 17.0831 3.61928 16.1068 2.64296C15.1305 1.66666 13.5592 1.66666 10.4164 1.66666H9.58317C6.44053 1.66666 4.8692 1.66666 3.89289 2.64296C2.91658 3.61926 2.91656 5.19059 2.91654 8.33326L2.9165 12.0833C2.91648 14.8228 2.91647 16.1927 3.67307 17.1146C3.8116 17.2834 3.96639 17.4382 4.13519 17.5767C5.05715 18.3333 6.42691 18.3333 9.16642 18.3333" stroke="#0A4BB8" stroke-width="1.5" stroke-linecap="round" stroke-linejoin="round"/>
<path d="M6.25 5.83334H13.75" stroke="#0A4BB8" stroke-width="1.5" stroke-linecap="round" stroke-linejoin="round"/>
<path d="M6.25 10H11.25" stroke="#0A4BB8" stroke-width="1.5" stroke-linecap="round" stroke-linejoin="round"/>
<path d="M17.0835 16.6667V14.1667C17.0835 12.9755 15.9642 11.6667 14.5835 11.6667C13.2027 11.6667 12.0835 12.9755 12.0835 14.1667V17.0833C12.0835 17.7737 12.6432 18.3333 13.3335 18.3333C14.0238 18.3333 14.5835 17.7737 14.5835 17.0833V14.1667" stroke="#0A4BB8" stroke-width="1.5" stroke-linecap="round" stroke-linejoin="round"/>
</svg>
