<svg width="21" height="21" viewBox="0 0 21 21" fill="none" xmlns="http://www.w3.org/2000/svg">
<path d="M7.38122 11.4217C5.30751 9.87133 3.8297 8.16596 3.02278 7.20722C2.773 6.91044 2.69115 6.69325 2.64194 6.31067C2.47343 5.00067 2.38918 4.34567 2.77329 3.92283C3.15742 3.5 3.8367 3.5 5.19528 3.5H14.8047C16.1633 3.5 16.8426 3.5 17.2267 3.92283C17.6108 4.34567 17.5266 5.00067 17.3581 6.31067C17.3088 6.69326 17.227 6.91045 16.9772 7.20722C16.1692 8.16718 14.6884 9.87558 12.6105 11.4279C12.4225 11.5684 12.2986 11.7972 12.2756 12.0512C12.0698 14.3267 11.8799 15.573 11.7618 16.2035C11.5711 17.2214 10.1277 17.8338 9.355 18.3802C8.89508 18.7055 8.33692 18.3183 8.27732 17.8148C8.16369 16.8551 7.94968 14.9053 7.71606 12.0512C7.69508 11.7949 7.57072 11.5634 7.38122 11.4217Z" stroke="#03002F" stroke-width="1.5" stroke-linecap="round" stroke-linejoin="round"/>
<circle cx="16" cy="5" r="4.5" fill="#0A4BB8" stroke="white"/>
</svg>
