<svg width="20" height="20" viewBox="0 0 20 20" fill="none" xmlns="http://www.w3.org/2000/svg">
<path d="M2.0835 10C2.0835 6.26806 2.0835 4.40209 3.24286 3.24271C4.40224 2.08334 6.26821 2.08334 10.0002 2.08334C13.7321 2.08334 15.5981 2.08334 16.7575 3.24271C17.9168 4.40209 17.9168 6.26806 17.9168 10C17.9168 13.7319 17.9168 15.5979 16.7575 16.7573C15.5981 17.9167 13.7321 17.9167 10.0002 17.9167C6.26821 17.9167 4.40224 17.9167 3.24286 16.7573C2.0835 15.5979 2.0835 13.7319 2.0835 10Z" stroke="#0A4BB8" stroke-width="1.5"/>
<path d="M13.75 7.5C14.4404 7.5 15 6.94036 15 6.25C15 5.55964 14.4404 5 13.75 5C13.0596 5 12.5 5.55964 12.5 6.25C12.5 6.94036 13.0596 7.5 13.75 7.5Z" stroke="#0A4BB8" stroke-width="1.5"/>
<path d="M13.3333 18.3333C12.8171 16.4791 11.6121 14.8184 9.89708 13.6118C8.04801 12.3108 5.72636 11.6222 3.34641 11.6689C3.06382 11.6683 2.78147 11.6773 2.5 11.6959" stroke="#0A4BB8" stroke-width="1.5" stroke-linejoin="round"/>
<path d="M10.8335 15C12.2514 13.8944 13.7789 13.3273 15.322 13.3334C16.197 13.3325 17.0678 13.518 17.9168 13.8848" stroke="#0A4BB8" stroke-width="1.5" stroke-linejoin="round"/>
</svg>
