<svg width="80" height="50" viewBox="0 0 80 50" fill="none" xmlns="http://www.w3.org/2000/svg">
<rect width="80" height="50" rx="25" fill="#A45785" fill-opacity="0.15"/>
<path d="M33.8742 27.2933L33.1088 30.1521L30.3105 30.2117C29.4641 28.635 29.0144 26.8759 29.0003 25.0865C28.9863 23.2971 29.4083 21.5311 30.2299 19.9414L32.7211 20.3997L33.8128 22.8745C33.3217 24.3105 33.3434 25.8723 33.8742 27.2942V27.2933Z" fill="#FBBB00"/>
<path d="M50.8051 22.9443C51.178 24.9056 51.01 26.9313 50.3193 28.8043C49.6285 30.6774 48.441 32.3271 46.884 33.5766L43.7457 33.4162L43.3011 30.6436C44.597 29.8839 45.5926 28.7022 46.1214 27.2962H40.2397V22.9453H50.8051V22.9443Z" fill="#518EF8"/>
<path d="M46.8831 33.5771C45.6247 34.5878 44.1592 35.3092 42.5908 35.69C41.0223 36.0708 39.3892 36.1017 37.8075 35.7806C36.2257 35.4594 34.734 34.7941 33.4382 33.8318C32.1424 32.8695 31.0742 31.6338 30.3096 30.2124L33.8741 27.2949C34.2089 28.1869 34.7344 28.9951 35.414 29.6628C36.0936 30.3306 36.9108 30.8418 37.8086 31.1608C38.7064 31.4798 39.663 31.5988 40.6115 31.5096C41.5601 31.4203 42.4777 31.1249 43.3002 30.6441L46.8831 33.5771Z" fill="#28B446"/>
<path d="M47.0189 16.5329L43.4553 19.4495C42.6205 18.9297 41.6794 18.6049 40.7017 18.4991C39.7241 18.3933 38.7352 18.5093 37.8086 18.8384C36.882 19.1676 36.0416 19.7014 35.3498 20.4002C34.658 21.099 34.1327 21.9449 33.8129 22.8747L30.23 19.9417C30.9856 18.4824 32.0586 17.2109 33.3701 16.2208C34.6816 15.2306 36.1983 14.5469 37.8088 14.2199C39.4192 13.8929 41.0825 13.931 42.6763 14.3313C44.2702 14.7315 45.7541 15.4838 47.0189 16.5329Z" fill="#F14336"/>
</svg>
