<svg width="4" height="90" viewBox="0 0 4 90" fill="none" xmlns="http://www.w3.org/2000/svg">
<path d="M2 0.666667C1.26362 0.666667 0.666667 1.26362 0.666667 2C0.666667 2.73638 1.26362 3.33333 2 3.33333C2.73638 3.33333 3.33333 2.73638 3.33333 2C3.33333 1.26362 2.73638 0.666667 2 0.666667ZM1.75 2L1.75 2.5L2.25 2.5L2.25 2L1.75 2ZM1.75 3.5L1.75 4.5L2.25 4.5L2.25 3.5L1.75 3.5ZM1.75 5.5L1.75 6.5L2.25 6.5L2.25 5.5L1.75 5.5ZM1.75 7.5L1.75 8.5L2.25 8.5L2.25 7.5L1.75 7.5ZM1.75 9.5L1.75 10.5L2.25 10.5L2.25 9.5L1.75 9.5ZM1.75 11.5L1.75 12.5L2.25 12.5L2.25 11.5L1.75 11.5ZM1.75 13.5L1.75 14.5L2.25 14.5L2.25 13.5L1.75 13.5ZM1.75 15.5L1.75 16.5L2.25 16.5L2.25 15.5L1.75 15.5ZM1.75 17.5L1.75 18.5L2.25 18.5L2.25 17.5L1.75 17.5ZM1.75 19.5L1.75 20.5L2.25 20.5L2.25 19.5L1.75 19.5ZM1.75 21.5L1.75 22.5L2.25 22.5L2.25 21.5L1.75 21.5ZM1.75 23.5L1.75 24.5L2.25 24.5L2.25 23.5L1.75 23.5ZM1.75 25.5L1.75 26.5L2.25 26.5L2.25 25.5L1.75 25.5ZM1.75 27.5L1.75 28.5L2.25 28.5L2.25 27.5L1.75 27.5ZM1.75 29.5L1.75 30.5L2.25 30.5L2.25 29.5L1.75 29.5ZM1.75 31.5L1.75 32.5L2.25 32.5L2.25 31.5L1.75 31.5ZM1.75 33.5L1.75 34.5L2.25 34.5L2.25 33.5L1.75 33.5ZM1.75 35.5L1.75 36.5L2.25 36.5L2.25 35.5L1.75 35.5ZM1.75 37.5L1.75 38.5L2.25 38.5L2.25 37.5L1.75 37.5ZM1.75 39.5L1.75 40.5L2.25 40.5L2.25 39.5L1.75 39.5ZM1.75 41.5L1.75 42.5L2.25 42.5L2.25 41.5L1.75 41.5ZM1.75 43.5L1.75 44.5L2.25 44.5L2.25 43.5L1.75 43.5ZM1.75 45.5L1.75 46.5L2.25 46.5L2.25 45.5L1.75 45.5ZM1.75 47.5L1.75 48.5L2.25 48.5L2.25 47.5L1.75 47.5ZM1.75 49.5L1.75 50.5L2.25 50.5L2.25 49.5L1.75 49.5ZM1.75 51.5L1.75 52.5L2.25 52.5L2.25 51.5L1.75 51.5ZM1.75 53.5L1.75 54.5L2.25 54.5L2.25 53.5L1.75 53.5ZM1.75 55.5L1.75 56.5L2.25 56.5L2.25 55.5L1.75 55.5ZM1.75 57.5L1.75 58.5L2.25 58.5L2.25 57.5L1.75 57.5ZM1.75 59.5L1.75 60.5L2.25 60.5L2.25 59.5L1.75 59.5ZM1.75 61.5L1.75 62.5L2.25 62.5L2.25 61.5L1.75 61.5ZM1.75 63.5L1.75 64.5L2.25 64.5L2.25 63.5L1.75 63.5ZM1.75 65.5L1.75 66.5L2.25 66.5L2.25 65.5L1.75 65.5ZM1.75 67.5L1.75 68.5L2.25 68.5L2.25 67.5L1.75 67.5ZM1.75 69.5L1.75 70.5L2.25 70.5L2.25 69.5L1.75 69.5ZM1.75 71.5L1.75 72.5L2.25 72.5L2.25 71.5L1.75 71.5ZM1.75 73.5L1.75 74.5L2.25 74.5L2.25 73.5L1.75 73.5ZM1.75 75.5L1.75 76.5L2.25 76.5L2.25 75.5L1.75 75.5ZM1.75 77.5L1.75 78.5L2.25 78.5L2.25 77.5L1.75 77.5ZM1.75 79.5L1.75 80.5L2.25 80.5L2.25 79.5L1.75 79.5ZM1.75 81.5L1.75 82.5L2.25 82.5L2.25 81.5L1.75 81.5ZM1.75 83.5L1.75 84.5L2.25 84.5L2.25 83.5L1.75 83.5ZM1.75 85.5L1.75 86.5L2.25 86.5L2.25 85.5L1.75 85.5ZM1.75 87.5L1.75 88.5L2.25 88.5L2.25 87.5L1.75 87.5ZM1.75 89.5L1.75 90L2.25 90L2.25 89.5L1.75 89.5Z" fill="black"/>
</svg>
