<svg width="120" height="4" viewBox="0 0 120 4" fill="none" xmlns="http://www.w3.org/2000/svg">
<path d="M0.666667 2C0.666667 2.73638 1.26362 3.33333 2 3.33333C2.73638 3.33333 3.33333 2.73638 3.33333 2C3.33333 1.26362 2.73638 0.666667 2 0.666667C1.26362 0.666667 0.666667 1.26362 0.666667 2ZM116.667 2C116.667 2.73638 117.264 3.33333 118 3.33333C118.736 3.33333 119.333 2.73638 119.333 2C119.333 1.26362 118.736 0.666667 118 0.666667C117.264 0.666667 116.667 1.26362 116.667 2ZM2 2.25H2.5V1.75H2V2.25ZM3.5 2.25H4.5V1.75L3.5 1.75V2.25ZM5.5 2.25L6.5 2.25V1.75L5.5 1.75V2.25ZM7.5 2.25H8.5V1.75L7.5 1.75V2.25ZM9.5 2.25H10.5V1.75H9.5V2.25ZM11.5 2.25L12.5 2.25V1.75L11.5 1.75V2.25ZM13.5 2.25H14.5V1.75L13.5 1.75V2.25ZM15.5 2.25H16.5V1.75H15.5V2.25ZM17.5 2.25H18.5V1.75L17.5 1.75V2.25ZM19.5 2.25L20.5 2.25V1.75L19.5 1.75V2.25ZM21.5 2.25H22.5V1.75L21.5 1.75V2.25ZM23.5 2.25H24.5V1.75H23.5V2.25ZM25.5 2.25L26.5 2.25V1.75L25.5 1.75V2.25ZM27.5 2.25L28.5 2.25V1.75L27.5 1.75V2.25ZM29.5 2.25H30.5V1.75L29.5 1.75V2.25ZM31.5 2.25H32.5V1.75L31.5 1.75V2.25ZM33.5 2.25L34.5 2.25V1.75L33.5 1.75V2.25ZM35.5 2.25H36.5V1.75L35.5 1.75V2.25ZM37.5 2.25H38.5V1.75H37.5V2.25ZM39.5 2.25H40.5V1.75L39.5 1.75V2.25ZM41.5 2.25L42.5 2.25V1.75L41.5 1.75V2.25ZM43.5 2.25H44.5V1.75L43.5 1.75V2.25ZM45.5 2.25H46.5V1.75H45.5V2.25ZM47.5 2.25L48.5 2.25V1.75L47.5 1.75V2.25ZM49.5 2.25L50.5 2.25V1.75L49.5 1.75V2.25ZM51.5 2.25H52.5V1.75H51.5V2.25ZM53.5 2.25H54.5V1.75L53.5 1.75V2.25ZM55.5 2.25L56.5 2.25V1.75L55.5 1.75V2.25ZM57.5 2.25H58.5V1.75L57.5 1.75V2.25ZM59.5 2.25H60.5V1.75H59.5V2.25ZM61.5 2.25H62.5V1.75L61.5 1.75V2.25ZM63.5 2.25L64.5 2.25V1.75L63.5 1.75V2.25ZM65.5 2.25H66.5V1.75L65.5 1.75V2.25ZM67.5 2.25H68.5V1.75H67.5V2.25ZM69.5 2.25L70.5 2.25V1.75L69.5 1.75V2.25ZM71.5 2.25L72.5 2.25V1.75L71.5 1.75V2.25ZM73.5 2.25H74.5V1.75H73.5V2.25ZM75.5 2.25H76.5V1.75L75.5 1.75V2.25ZM77.5 2.25L78.5 2.25V1.75L77.5 1.75V2.25ZM79.5 2.25H80.5V1.75L79.5 1.75V2.25ZM81.5 2.25H82.5V1.75H81.5V2.25ZM83.5 2.25H84.5V1.75L83.5 1.75V2.25ZM85.5 2.25L86.5 2.25V1.75L85.5 1.75V2.25ZM87.5 2.25H88.5V1.75L87.5 1.75V2.25ZM89.5 2.25H90.5V1.75L89.5 1.75V2.25ZM91.5 2.25L92.5 2.25V1.75L91.5 1.75V2.25ZM93.5 2.25L94.5 2.25V1.75L93.5 1.75V2.25ZM95.5 2.25H96.5V1.75H95.5V2.25ZM97.5 2.25H98.5V1.75L97.5 1.75V2.25ZM99.5 2.25L100.5 2.25V1.75L99.5 1.75V2.25ZM101.5 2.25H102.5V1.75L101.5 1.75V2.25ZM103.5 2.25H104.5V1.75H103.5V2.25ZM105.5 2.25H106.5V1.75L105.5 1.75V2.25ZM107.5 2.25L108.5 2.25V1.75L107.5 1.75V2.25ZM109.5 2.25H110.5V1.75H109.5V2.25ZM111.5 2.25H112.5V1.75L111.5 1.75V2.25ZM113.5 2.25L114.5 2.25V1.75L113.5 1.75V2.25ZM115.5 2.25H116.5V1.75L115.5 1.75V2.25ZM117.5 2.25H118V1.75H117.5V2.25Z" fill="#0A4BB8"/>
</svg>
