<svg width="18" height="18" viewBox="0 0 18 18" fill="none" xmlns="http://www.w3.org/2000/svg">
<path d="M11.25 7.125C11.25 8.36768 10.2427 9.375 9 9.375C7.75732 9.375 6.75 8.36768 6.75 7.125C6.75 5.88236 7.75732 4.875 9 4.875C10.2427 4.875 11.25 5.88236 11.25 7.125Z" stroke="black" stroke-width="1.5"/>
<path d="M9 1.5C12.0441 1.5 14.625 4.07102 14.625 7.19017C14.625 10.359 12.0021 12.5827 9.57938 14.0949C9.40283 14.1965 9.20318 14.25 9 14.25C8.79682 14.25 8.59717 14.1965 8.42062 14.0949C6.00244 12.568 3.375 10.3699 3.375 7.19017C3.375 4.07102 5.9559 1.5 9 1.5Z" stroke="black" stroke-width="1.5"/>
<path d="M13.5 15C13.5 15.8284 11.4853 16.5 9 16.5C6.51472 16.5 4.5 15.8284 4.5 15" stroke="black" stroke-width="1.5" stroke-linecap="round"/>
</svg>
