<svg width="16" height="16" viewBox="0 0 16 16" fill="none" xmlns="http://www.w3.org/2000/svg">
<g clip-path="url(#clip0_14899_2666)">
<path d="M14.6667 6.66658V6.14491C14.6667 4.85183 14.6667 4.2053 14.2761 3.80359C13.8856 3.40188 13.2571 3.40188 12 3.40188H10.6143C10.0027 3.40188 9.99761 3.40069 9.44768 3.12548L7.22661 2.01401C6.29924 1.54995 5.83556 1.31791 5.3416 1.33404C4.84763 1.35017 4.39919 1.61197 3.50231 2.13559L2.68373 2.6135C2.02494 2.99811 1.69554 3.19043 1.51444 3.51035C1.33334 3.83027 1.33334 4.21987 1.33334 4.99907V10.4771C1.33334 11.5009 1.33334 12.0128 1.56152 12.2977C1.71335 12.4873 1.92612 12.6147 2.16134 12.657C2.51485 12.7205 2.94766 12.4678 3.81326 11.9624C4.40105 11.6193 4.96675 11.2629 5.66992 11.3595C6.25914 11.4405 6.80668 11.8123 7.33334 12.0758" stroke="white" stroke-width="1.5" stroke-linecap="round" stroke-linejoin="round"/>
<path d="M5.33334 1.33325V11.3333" stroke="white" stroke-width="1.5" stroke-linejoin="round"/>
<path d="M10 3.33325V6.33325" stroke="white" stroke-width="1.5" stroke-linecap="round" stroke-linejoin="round"/>
<path d="M12.2055 14.4557C12.061 14.591 11.8678 14.6667 11.6667 14.6667C11.4657 14.6667 11.2725 14.591 11.1279 14.4557C9.80419 13.2087 8.03032 11.8157 8.89539 9.7932C9.36312 8.69973 10.4859 8 11.6667 8C12.8475 8 13.9703 8.69973 14.4381 9.7932C15.3021 11.8131 13.5325 13.2129 12.2055 14.4557Z" stroke="white" stroke-width="1.5"/>
<path d="M11.6667 11H11.6727" stroke="white" stroke-width="2" stroke-linecap="round" stroke-linejoin="round"/>
</g>
<defs>
<clipPath id="clip0_14899_2666">
<rect width="16" height="16" fill="white"/>
</clipPath>
</defs>
</svg>
