<svg width="16" height="16" viewBox="0 0 16 16" fill="none" xmlns="http://www.w3.org/2000/svg">
<path d="M9.66683 7.99992C9.66683 8.92039 8.92063 9.66659 8.00016 9.66659C7.0797 9.66659 6.3335 8.92039 6.3335 7.99992C6.3335 7.07945 7.0797 6.33325 8.00016 6.33325C8.92063 6.33325 9.66683 7.07945 9.66683 7.99992Z" stroke="white" stroke-width="1.5"/>
<path d="M12.6668 7.42765C12.4501 7.39625 12.2275 7.37238 12.0002 7.35645M4.00016 8.64351C3.77281 8.62764 3.55024 8.60371 3.3335 8.57231" stroke="white" stroke-width="1.5" stroke-linecap="round" stroke-linejoin="round"/>
<path d="M8.00016 12.9999C7.11183 13.4149 5.94488 13.6666 4.66683 13.6666C3.95622 13.6666 3.27996 13.5888 2.66683 13.4483C1.66654 13.2192 1.3335 12.6175 1.3335 11.5906V4.40923C1.3335 3.75268 2.02685 3.30174 2.66683 3.44832C3.27996 3.58875 3.95622 3.66659 4.66683 3.66659C5.94488 3.66659 7.11183 3.41483 8.00016 2.99992C8.8885 2.58501 10.0554 2.33325 11.3335 2.33325C12.0441 2.33325 12.7204 2.41109 13.3335 2.55152C14.388 2.79304 14.6668 3.41349 14.6668 4.40923V11.5906C14.6668 12.2472 13.9735 12.6981 13.3335 12.5515C12.7204 12.4111 12.0441 12.3333 11.3335 12.3333C10.0554 12.3333 8.8885 12.585 8.00016 12.9999Z" stroke="white" stroke-width="1.5"/>
</svg>
