<svg width="80" height="80" viewBox="0 0 80 80" fill="none" xmlns="http://www.w3.org/2000/svg">
<path d="M38.3332 10.0127C36.4608 10.0406 34.5962 10.1154 32.7645 10.2372C18.8211 11.1641 7.71453 22.4282 6.80063 36.5693C6.6218 39.3367 6.6218 42.2027 6.80063 44.97C7.1335 50.1203 9.41126 54.889 12.0929 58.9157C13.6499 61.7347 12.6223 65.253 11.0005 68.3263C9.8312 70.5423 9.24653 71.6503 9.71596 72.4507C10.1854 73.251 11.234 73.2767 13.3313 73.3277C17.4787 73.4287 20.2754 72.2527 22.4954 70.6157C23.7545 69.6873 24.3841 69.223 24.818 69.1697C25.2518 69.1163 26.1057 69.468 27.8132 70.1713C29.3478 70.8033 31.1297 71.1933 32.7645 71.302C37.5118 71.6177 42.4782 71.6183 47.2352 71.302C61.1785 70.3753 72.2852 59.111 73.1992 44.97C73.3778 42.2027 73.3778 39.3367 73.1992 36.5693C73.0125 33.683 72.4015 30.9167 71.4282 28.3336" stroke="#03002F" stroke-width="6" stroke-linecap="round" stroke-linejoin="round"/>
<path d="M46.6665 20.0003C46.6665 20.0003 49.9998 20.0003 53.3332 26.667C53.3332 26.667 63.9215 10.0003 73.3332 6.66699" stroke="#209A55" stroke-width="6" stroke-linecap="round" stroke-linejoin="round"/>
<path d="M39.9843 41.667H40.0143M53.3026 41.667H53.3326M26.666 41.667H26.6959" stroke="#03002F" stroke-width="7" stroke-linecap="round" stroke-linejoin="round"/>
</svg>
