<svg width="20" height="20" viewBox="0 0 20 20" fill="none" xmlns="http://www.w3.org/2000/svg">
<path d="M7.9165 3.33496C5.71285 3.34318 4.53401 3.42023 3.77078 4.14329C2.9165 4.9526 2.9165 6.25517 2.9165 8.86034V12.8077C2.9165 15.4128 2.9165 16.7153 3.77078 17.5247C4.62505 18.334 5.99998 18.334 8.74984 18.334H11.2498C13.9997 18.334 15.3746 18.334 16.2289 17.5247C17.0832 16.7153 17.0832 15.4128 17.0832 12.8077V8.86034C17.0832 6.25517 17.0832 4.9526 16.2289 4.14329C15.4657 3.42023 14.2868 3.34318 12.0832 3.33496" stroke="white" stroke-width="1.5" stroke-linecap="round" stroke-linejoin="round"/>
<path d="M8.1433 3.02668C8.22325 2.68101 8.26324 2.50818 8.34 2.36703C8.51892 2.03821 8.84884 1.79656 9.24267 1.70591C9.41175 1.66699 9.60784 1.66699 9.99984 1.66699C10.3918 1.66699 10.5879 1.66699 10.757 1.70591C11.1508 1.79656 11.4808 2.0382 11.6597 2.36703C11.7364 2.50818 11.7764 2.68101 11.8563 3.02668L11.9258 3.32679C12.0676 3.93986 12.1385 4.24639 12.0315 4.48219C11.9623 4.63491 11.8442 4.76568 11.6923 4.85792C11.4578 5.00033 11.1102 5.00033 10.4149 5.00033H9.58475C8.8895 5.00033 8.54184 5.00033 8.30734 4.85792C8.15548 4.76568 8.03742 4.63491 7.96814 4.48219C7.86118 4.24639 7.93208 3.93986 8.07389 3.32679L8.1433 3.02668Z" stroke="white" stroke-width="1.5"/>
<path d="M7.91846 10.1394V8.40332M9.65456 10.1394V8.40332M11.3907 10.1394V8.57693" stroke="white" stroke-linecap="round" stroke-linejoin="round"/>
<path d="M7.57519 12.57C7.08215 12.57 6.83563 12.57 6.68246 12.4175C6.5293 12.2649 6.5293 12.0194 6.5293 11.5283V9.44499C6.5293 8.95394 6.5293 8.70842 6.68246 8.55587C6.83563 8.40332 7.08215 8.40332 7.57519 8.40332H10.0351C11.2412 8.40332 11.8443 8.40332 12.3058 8.64854C12.6456 8.82913 12.9288 9.09967 13.1242 9.43035C13.3894 9.8794 13.4145 10.4795 13.4647 11.6797C13.4782 12.0033 13.485 12.165 13.4218 12.2874C13.3753 12.3774 13.3035 12.452 13.2151 12.502C13.095 12.57 12.9324 12.57 12.6073 12.57H12.4321M8.95985 12.57H11.0432" stroke="white" stroke-linecap="round" stroke-linejoin="round"/>
<path d="M8.26525 13.2639C8.64878 13.2639 8.95969 12.953 8.95969 12.5694C8.95969 12.1859 8.64878 11.875 8.26525 11.875C7.88171 11.875 7.5708 12.1859 7.5708 12.5694C7.5708 12.953 7.88171 13.2639 8.26525 13.2639Z" stroke="white"/>
<path d="M11.7374 13.2639C12.121 13.2639 12.4319 12.953 12.4319 12.5694C12.4319 12.1859 12.121 11.875 11.7374 11.875C11.3539 11.875 11.043 12.1859 11.043 12.5694C11.043 12.953 11.3539 13.2639 11.7374 13.2639Z" stroke="white"/>
<path d="M6.52637 10.1396H11.168C11.3857 10.1396 11.4597 10.2671 11.6264 10.4671C11.818 10.6546 11.9476 10.7862 12.1264 10.813C12.3764 10.8505 13.3014 10.8317 13.3014 10.8317" stroke="white" stroke-linecap="round"/>
</svg>
