<svg width="18" height="18" viewBox="0 0 18 18" fill="none" xmlns="http://www.w3.org/2000/svg">
<path d="M2.02244 11.2955C1.86295 12.3103 2.576 13.0146 3.44904 13.3656C6.79611 14.7114 11.4539 14.7114 14.8009 13.3656C15.674 13.0146 16.387 12.3103 16.2276 11.2955C16.1296 10.6719 15.6449 10.1526 15.2858 9.6455C14.8155 8.97313 14.7688 8.23978 14.7687 7.45956C14.7687 4.44433 12.2419 2 9.125 2C6.0081 2 3.48135 4.44433 3.48135 7.45956C3.48127 8.23978 3.43454 8.97313 2.96421 9.6455C2.60513 10.1526 2.12046 10.6719 2.02244 11.2955Z" stroke="black" stroke-width="1.5" stroke-linecap="round" stroke-linejoin="round"/>
<path d="M6.875 16.25C7.4721 16.7164 8.26062 17 9.125 17C9.98938 17 10.7779 16.7164 11.375 16.25" stroke="black" stroke-width="1.5" stroke-linecap="round" stroke-linejoin="round"/>
</svg>
