<svg width="16" height="16" viewBox="0 0 16 16" fill="none" xmlns="http://www.w3.org/2000/svg">
<path d="M7.34667 13H5.00001C4.58667 13 4.22001 12.9867 3.89334 12.94C2.14001 12.7467 1.66667 11.92 1.66667 9.66667V6.33333C1.66667 4.08 2.14001 3.25333 3.89334 3.06C4.22001 3.01333 4.58667 3 5.00001 3H7.30667" stroke="#0A4BB8" stroke-linecap="round" stroke-linejoin="round"/>
<path d="M10.0133 3H11C11.4133 3 11.78 3.01333 12.1067 3.06C13.86 3.25333 14.3333 4.08 14.3333 6.33333V9.66667C14.3333 11.92 13.86 12.7467 12.1067 12.94C11.78 12.9867 11.4133 13 11 13H10.0133" stroke="#0A4BB8" stroke-linecap="round" stroke-linejoin="round"/>
<path d="M12.3297 11.0001H12.3357" stroke="#0A4BB8" stroke-width="1.33333" stroke-linecap="round" stroke-linejoin="round"/>
<path d="M3.663 11.0001H3.66899" stroke="#0A4BB8" stroke-width="1.33333" stroke-linecap="round" stroke-linejoin="round"/>
<path d="M12.3297 5.00008H12.3357" stroke="#0A4BB8" stroke-width="1.33333" stroke-linecap="round" stroke-linejoin="round"/>
<path d="M3.663 5.00008H3.66899" stroke="#0A4BB8" stroke-width="1.33333" stroke-linecap="round" stroke-linejoin="round"/>
<path d="M11.4057 8.40914H11.9722C11.9649 8.49079 12.0113 8.53642 12.0968 8.53642C12.17 8.53642 12.2188 8.4956 12.2188 8.43316C12.2188 8.36591 12.1725 8.33709 12.0797 8.33709H11.8843V8.00088H12.0723C12.1554 8.00088 12.1993 7.95285 12.1993 7.89041C12.1993 7.83517 12.1651 7.79675 12.0943 7.79675C12.0259 7.79675 11.9795 7.83517 11.9795 7.90242C11.9795 7.91202 11.9795 7.91683 11.982 7.93123H11.4179C11.4155 7.91202 11.4155 7.90482 11.4155 7.89041C11.4155 7.57341 11.6694 7.33325 12.1163 7.33325C12.5412 7.33325 12.7683 7.51817 12.7683 7.80155C12.7683 7.98647 12.6681 8.10895 12.4533 8.14257V8.15218C12.695 8.17379 12.8 8.31548 12.8 8.5028C12.8 8.79819 12.529 8.99992 12.109 8.99992C11.5742 8.99992 11.3837 8.75256 11.4057 8.40914Z" fill="#0A4BB8"/>
<path d="M9.92961 8.85342C9.92961 8.51001 10.0493 8.29147 10.5474 8.08493C10.6915 8.02489 10.733 7.99127 10.733 7.90242C10.733 7.84478 10.6963 7.80876 10.6377 7.80876C10.5694 7.80876 10.523 7.84718 10.523 7.93123C10.523 7.94564 10.5254 7.96245 10.5279 7.97927H9.9467C9.94426 7.96005 9.94426 7.94084 9.94426 7.92163C9.94426 7.57821 10.2007 7.33325 10.6475 7.33325C11.0821 7.33325 11.3117 7.53738 11.3117 7.86639C11.3117 8.10415 11.1969 8.27706 10.8575 8.36591C10.7012 8.40674 10.5865 8.43556 10.5718 8.47879H11.3141V8.9711H9.92961V8.85342Z" fill="#0A4BB8"/>
<path d="M9.80156 8.97133H9.22286V7.91946C9.1496 7.9747 9.05193 8.00832 8.93472 8.01552V7.52321C9.0617 7.504 9.16914 7.44636 9.24239 7.3623H9.80156V8.97133Z" fill="#0A4BB8"/>
<path d="M6.84171 8.17619C6.84171 7.68388 7.16158 7.33325 7.64994 7.33325C8.14075 7.33325 8.42644 7.65746 8.42888 8.06812H7.85017C7.84285 7.93604 7.79401 7.82076 7.65239 7.82076C7.50832 7.82076 7.43262 7.97206 7.43262 8.17619C7.43262 8.37312 7.50344 8.51241 7.65483 8.51241C7.7818 8.51241 7.8404 8.41875 7.8575 8.25784H8.43621C8.42888 8.69012 8.14075 8.99992 7.65971 8.99992C7.15914 8.99992 6.84171 8.69492 6.84171 8.17619Z" fill="#0A4BB8"/>
<path d="M6.42552 8.1404C6.66238 8.18603 6.76249 8.30131 6.76249 8.50784C6.76249 8.80803 6.52564 8.97133 6.12762 8.97133H5.29985V7.3623H6.14227C6.53541 7.3623 6.72831 7.52321 6.72831 7.77537C6.72831 7.94108 6.64529 8.07076 6.42552 8.12839V8.1404ZM6.05437 7.80419H5.87856V7.99151H6.04216C6.11053 7.99151 6.14472 7.95068 6.14472 7.89545C6.14472 7.84021 6.10809 7.80419 6.05437 7.80419ZM6.05925 8.52945C6.12762 8.52945 6.16913 8.48622 6.16913 8.42619C6.16913 8.36615 6.13251 8.33012 6.05925 8.33012H5.87856V8.52945H6.05925Z" fill="#0A4BB8"/>
<path d="M4.60698 8.97109L4.54838 8.77657H4.10153L4.04537 8.97109H3.46666L4.02095 7.36206H4.6607L5.20279 8.97109H4.60698ZM4.21874 8.37791H4.43117L4.41164 8.31547C4.38966 8.24102 4.35059 8.11854 4.32618 8.01528H4.31641C4.29199 8.11614 4.25781 8.24102 4.23583 8.31787L4.21874 8.37791Z" fill="#0A4BB8"/>
</svg>
