<svg width="24" height="24" viewBox="0 0 24 24" fill="none" xmlns="http://www.w3.org/2000/svg">
<path d="M16.1122 3.5625L17.0524 4.47726C17.4724 4.88592 17.6824 5.09026 17.6084 5.26388C17.5345 5.4375 17.2375 5.4375 16.6435 5.4375H9.36763C5.6427 5.4375 2.62305 8.37563 2.62305 12C2.62305 13.3943 3.06993 14.6871 3.83195 15.75" stroke="white" stroke-width="1.5" stroke-linecap="round" stroke-linejoin="round"/>
<path d="M7.88584 20.4375L6.9457 19.5228C6.52569 19.114 6.31569 18.9097 6.3896 18.7361C6.46351 18.5625 6.7605 18.5625 7.35448 18.5625H14.6304C18.3553 18.5625 21.375 15.6244 21.375 12C21.375 10.6057 20.9281 9.31297 20.1661 8.25" stroke="white" stroke-width="1.5" stroke-linecap="round" stroke-linejoin="round"/>
</svg>
