<svg width="14" height="14" viewBox="0 0 14 14" fill="none" xmlns="http://www.w3.org/2000/svg">
<path d="M9.55925 1.75L10.1443 2.31918C10.4056 2.57346 10.5363 2.70061 10.4902 2.80864C10.4443 2.91667 10.2595 2.91667 9.88988 2.91667H5.36264C3.04491 2.91667 1.16602 4.74484 1.16602 7C1.16602 7.86753 1.44408 8.67195 1.91822 9.33333" stroke="white" stroke-width="1.2" stroke-linecap="round" stroke-linejoin="round"/>
<path d="M4.44008 12.2501L3.8551 11.6809C3.59377 11.4266 3.46309 11.2995 3.50908 11.1914C3.55507 11.0834 3.73987 11.0834 4.10946 11.0834H8.63672C10.9544 11.0834 12.8333 9.25525 12.8333 7.00008C12.8333 6.13255 12.5553 5.32815 12.0811 4.66675" stroke="white" stroke-width="1.2" stroke-linecap="round" stroke-linejoin="round"/>
</svg>
