<svg width="16" height="16" viewBox="0 0 16 16" fill="none" xmlns="http://www.w3.org/2000/svg">
<g clip-path="url(#clip0_1582_3247)">
<path d="M12 1.3335C13.4431 1.3335 14.6666 2.54339 14.6666 4.01122C14.6666 5.50244 13.4232 6.54891 12.2746 7.2605C12.1909 7.30836 12.0963 7.3335 12 7.3335C11.9036 7.3335 11.809 7.30836 11.7253 7.2605C10.5789 6.54196 9.33331 5.5076 9.33331 4.01122C9.33331 2.54339 10.5568 1.3335 12 1.3335Z" stroke="white" stroke-width="1.5"/>
<path d="M12 4H12.0075" stroke="white" stroke-width="2" stroke-linecap="round" stroke-linejoin="round"/>
<path d="M3.33331 14.6665C4.43788 14.6665 5.33331 13.7711 5.33331 12.6665C5.33331 11.5619 4.43788 10.6665 3.33331 10.6665C2.22874 10.6665 1.33331 11.5619 1.33331 12.6665C1.33331 13.7711 2.22874 14.6665 3.33331 14.6665Z" stroke="white" stroke-width="1.5" stroke-linecap="round" stroke-linejoin="round"/>
<path d="M7.33333 4.6665H6.33333C5.04467 4.6665 4 5.56194 4 6.6665C4 7.7711 5.04467 8.6665 6.33333 8.6665H8.33333C9.622 8.6665 10.6667 9.5619 10.6667 10.6665C10.6667 11.7711 9.622 12.6665 8.33333 12.6665H7.33333" stroke="white" stroke-width="1.5" stroke-linecap="round" stroke-linejoin="round"/>
</g>
<defs>
<clipPath id="clip0_1582_3247">
<rect width="16" height="16" fill="white"/>
</clipPath>
</defs>
</svg>
