<svg width="114" height="120" viewBox="0 0 114 120" fill="none" xmlns="http://www.w3.org/2000/svg">
<g opacity="0.14">
<path d="M46.2132 25.022L10.8579 24.9854M28.5539 7.32601L28.5173 42.6813" stroke="#F0FFD7" stroke-width="7.5" stroke-linecap="round" stroke-linejoin="round"/>
<path d="M90 110C81.7157 110 75 103.284 75 95C75 86.7157 81.7157 80 90 80C98.2843 80 105 86.7157 105 95C105 103.284 98.2843 110 90 110Z" stroke="#F0FFD7" stroke-width="7.5" stroke-linecap="round" stroke-linejoin="round"/>
<path d="M60 25H77.5C87.165 25 95 32.835 95 42.5C95 52.165 87.165 60 77.5 60H42.5C32.835 60 25 67.835 25 77.5C25 87.165 32.835 95 42.5 95H60" stroke="#F0FFD7" stroke-width="7.5" stroke-linecap="round" stroke-linejoin="round"/>
</g>
</svg>
