<svg width="20" height="20" viewBox="0 0 20 20" fill="none" xmlns="http://www.w3.org/2000/svg">
<g clip-path="url(#clip0_5316_6055)">
<path d="M15 1.66675C16.8039 1.66675 18.3334 3.17911 18.3334 5.01391C18.3334 6.87792 16.779 8.18601 15.3434 9.0755C15.2387 9.13533 15.1204 9.16675 15 9.16675C14.8796 9.16675 14.7614 9.13533 14.6567 9.0755C13.2237 8.17733 11.6667 6.88437 11.6667 5.01391C11.6667 3.17911 13.1961 1.66675 15 1.66675Z" stroke="white" stroke-width="1.5"/>
<path d="M15 5H15.0075" stroke="white" stroke-width="2" stroke-linecap="round" stroke-linejoin="round"/>
<path d="M4.16669 18.3333C5.5474 18.3333 6.66669 17.214 6.66669 15.8333C6.66669 14.4525 5.5474 13.3333 4.16669 13.3333C2.78598 13.3333 1.66669 14.4525 1.66669 15.8333C1.66669 17.214 2.78598 18.3333 4.16669 18.3333Z" stroke="white" stroke-width="1.5" stroke-linecap="round" stroke-linejoin="round"/>
<path d="M9.16667 5.83325H7.91667C6.30583 5.83325 5 6.95254 5 8.33325C5 9.714 6.30583 10.8333 7.91667 10.8333H10.4167C12.0275 10.8333 13.3333 11.9525 13.3333 13.3333C13.3333 14.714 12.0275 15.8333 10.4167 15.8333H9.16667" stroke="white" stroke-width="1.5" stroke-linecap="round" stroke-linejoin="round"/>
</g>
<defs>
<clipPath id="clip0_5316_6055">
<rect width="20" height="20" fill="white"/>
</clipPath>
</defs>
</svg>
