<svg width="18" height="18" viewBox="0 0 18 18" fill="none" xmlns="http://www.w3.org/2000/svg">
<path d="M3.86878 8.61825C3.81367 9.66525 3.87702 10.7798 2.9416 11.4813C2.50623 11.8079 2.25 12.3203 2.25 12.8645C2.25 13.6131 2.83635 14.25 3.6 14.25H14.4C15.1637 14.25 15.75 13.6131 15.75 12.8645C15.75 12.3203 15.4938 11.8079 15.0584 11.4813C14.1229 10.7798 14.1863 9.66525 14.1312 8.61825C13.9876 5.88917 11.7329 3.75 9 3.75C6.26713 3.75 4.01241 5.88917 3.86878 8.61825Z" stroke="white" stroke-width="1.5" stroke-linecap="round" stroke-linejoin="round"/>
<path d="M7.875 2.34375C7.875 2.96507 8.3787 3.75 9 3.75C9.6213 3.75 10.125 2.96507 10.125 2.34375C10.125 1.72243 9.6213 1.5 9 1.5C8.3787 1.5 7.875 1.72243 7.875 2.34375Z" stroke="white" stroke-width="1.5"/>
<path d="M11.25 14.25C11.25 15.4927 10.2427 16.5 9 16.5C7.75732 16.5 6.75 15.4927 6.75 14.25" stroke="white" stroke-width="1.5" stroke-linecap="round" stroke-linejoin="round"/>
</svg>
