<svg width="18" height="18" viewBox="0 0 18 18" fill="none" xmlns="http://www.w3.org/2000/svg">
<g clip-path="url(#clip0_1850_1518)">
<path d="M9.75 1.53544C9.50332 1.512 9.25313 1.5 9 1.5C4.85833 1.5 1.5 4.71268 1.5 8.67502C1.5 10.5788 2.275 12.3086 3.53917 13.5923C3.8175 13.875 4.00334 14.2611 3.92834 14.6586C3.80456 15.3084 3.52406 15.9145 3.11333 16.4197C4.19396 16.6207 5.31761 16.4398 6.28124 15.9273C6.62189 15.7462 6.7922 15.6556 6.9124 15.6372C7.03258 15.6188 7.20475 15.6512 7.54905 15.7159C8.0274 15.8057 8.51303 15.8507 9 15.85C12.6225 15.85 15.799 13.3924 16.5 10.125" stroke="white" stroke-width="1.5" stroke-linecap="round" stroke-linejoin="round"/>
<path d="M8.99662 9H9.00338M6 9H6.00673" stroke="white" stroke-width="2" stroke-linecap="round" stroke-linejoin="round"/>
<path d="M15.1377 2.84309C15.1377 3.58487 14.5491 4.18619 13.8231 4.18619C13.097 4.18619 12.5084 3.58487 12.5084 2.84309C12.5084 2.10132 13.097 1.5 13.8231 1.5C14.5491 1.5 15.1377 2.10132 15.1377 2.84309Z" stroke="white" stroke-width="1.5" stroke-linecap="round"/>
<path d="M11.2233 7.04738C11.919 5.95317 13.0237 5.5431 13.8231 5.54395C14.6224 5.54479 15.6948 5.95317 16.3905 7.04738C16.4355 7.11813 16.4479 7.20524 16.4073 7.27878C16.2445 7.57348 15.7394 8.15841 15.3745 8.19808C14.9554 8.24361 13.8587 8.24998 13.8239 8.25021C13.7891 8.25006 12.6586 8.24361 12.2392 8.19808C11.8744 8.15841 11.3692 7.57348 11.2065 7.27878C11.1659 7.20524 11.1783 7.11813 11.2233 7.04738Z" stroke="white" stroke-width="1.5" stroke-linecap="round"/>
</g>
<defs>
<clipPath id="clip0_1850_1518">
<rect width="18" height="18" fill="white"/>
</clipPath>
</defs>
</svg>
