<svg width="18" height="18" viewBox="0 0 18 18" fill="none" xmlns="http://www.w3.org/2000/svg">
<path d="M14.625 4.125L14.3236 8.25465M3.375 4.125L3.82846 11.6436C3.94459 13.5692 4.00266 14.5319 4.48401 15.2242C4.722 15.5665 5.0286 15.8555 5.38429 16.0727C5.88776 16.38 6.51081 16.4723 7.5 16.5" stroke="#03002F" stroke-width="1.5" stroke-linecap="round"/>
<path d="M2.25 4.125H15.75M12.0418 4.125L11.5298 3.0688C11.1897 2.3672 11.0196 2.01639 10.7263 1.79761C10.6612 1.74908 10.5923 1.7059 10.5203 1.66852C10.1954 1.5 9.80558 1.5 9.02588 1.5C8.2266 1.5 7.827 1.5 7.49676 1.67559C7.42357 1.71451 7.35373 1.75943 7.28797 1.80988C6.99123 2.03753 6.82547 2.40116 6.49396 3.12844L6.03969 4.125" stroke="#03002F" stroke-width="1.5" stroke-linecap="round"/>
<path d="M10.7935 14.6985C10.3808 14.9312 9.29891 15.4065 9.95785 16.0013C10.2797 16.2918 10.6383 16.4996 11.089 16.4996H13.661C14.1117 16.4996 14.4702 16.2918 14.7921 16.0013C15.4511 15.4065 14.3692 14.9312 13.9565 14.6985C12.9889 14.1526 11.7611 14.1526 10.7935 14.6985Z" stroke="#03002F" stroke-width="1.5"/>
<path d="M13.6875 11.7632C13.6875 12.4608 13.0999 13.0263 12.375 13.0263C11.6501 13.0263 11.0625 12.4608 11.0625 11.7632C11.0625 11.0655 11.6501 10.5 12.375 10.5C13.0999 10.5 13.6875 11.0655 13.6875 11.7632Z" stroke="#03002F" stroke-width="1.5"/>
</svg>
