<svg width="18" height="18" viewBox="0 0 18 18" fill="none" xmlns="http://www.w3.org/2000/svg">
<path d="M14.8367 8.625C15.0476 7.16976 15.1049 6.72153 14.8367 6.05583C14.5598 5.36851 13.9456 4.89824 12.717 3.95772L11.7991 3.255C10.2709 2.085 9.5067 1.5 8.625 1.5C7.7433 1.5 6.97916 2.085 5.45088 3.255L4.53298 3.95772C3.30444 4.89824 2.69017 5.36851 2.4133 6.05583C2.13643 6.74315 2.24896 7.51845 2.47401 9.06908L2.66592 10.3914C2.98495 12.5895 3.14447 13.6886 3.88901 14.3443C4.63355 15 5.72203 15 7.899 15H8.25" stroke="white" stroke-width="1.5" stroke-linecap="round" stroke-linejoin="round"/>
<path d="M12.375 12.375H12.3817" stroke="white" stroke-width="2" stroke-linecap="round" stroke-linejoin="round"/>
<path d="M12.375 9.75C13.7956 9.75 15 10.9599 15 12.4277C15 13.9189 13.776 14.9654 12.6454 15.677C12.563 15.7249 12.4698 15.75 12.375 15.75C12.2802 15.75 12.187 15.7249 12.1046 15.677C10.9761 14.9585 9.75 13.9241 9.75 12.4277C9.75 10.9599 10.9544 9.75 12.375 9.75Z" stroke="white" stroke-width="1.5"/>
</svg>
