<svg width="18" height="18" viewBox="0 0 18 18" fill="none" xmlns="http://www.w3.org/2000/svg">
<path d="M11.25 1.875V3C11.25 4.06066 11.25 4.59099 11.5795 4.92049C11.909 5.25 12.4394 5.25 13.5 5.25H14.625" stroke="white" stroke-width="1.5" stroke-linecap="round" stroke-linejoin="round"/>
<path d="M3 12V6C3 3.87868 3 2.81802 3.65901 2.15901C4.31802 1.5 5.37868 1.5 7.5 1.5H10.6287C10.9352 1.5 11.0885 1.5 11.2264 1.55709C11.3642 1.61418 11.4726 1.72257 11.6894 1.93934L14.5606 4.81066C14.7774 5.02743 14.8859 5.13582 14.9429 5.27365C15 5.41147 15 5.56476 15 5.87132V12C15 14.1213 15 15.1819 14.341 15.841C13.6819 16.5 12.6213 16.5 10.5 16.5H7.5C5.37868 16.5 4.31802 16.5 3.65901 15.841C3 15.1819 3 14.1213 3 12Z" stroke="white" stroke-width="1.5" stroke-linecap="round" stroke-linejoin="round"/>
<path d="M6 8.25H12M6 10.5H12M6 12.75H9.1281" stroke="white" stroke-width="1.5" stroke-linecap="round" stroke-linejoin="round"/>
</svg>
