<svg width="17" height="16" viewBox="0 0 17 16" fill="none" xmlns="http://www.w3.org/2000/svg">
<path d="M15.2843 0L14.8882 0.862393L14.3232 0.618128L14.6237 0H13.1725C13 0.0281226 12.8372 0.0972046 12.6988 0.201121C12.5603 0.305038 12.4503 0.44058 12.3786 0.595729L5.31261 15.9999H7.24787L7.6226 15.2285L8.18579 15.4717L7.93682 15.9999H9.10873C9.28115 16.0027 9.45076 15.9572 9.59728 15.8688C9.7438 15.7803 9.86104 15.6527 9.93496 15.5012L9.93771 15.4952L17 0H15.2843ZM8.79633 14.1453L8.23131 13.9021L8.84093 12.5738L9.40614 12.8171L8.79633 14.1453ZM10.0139 11.4872L9.45055 11.2456L10.0602 9.91566L10.6237 10.1601L10.0139 11.4872ZM11.2335 8.83246L10.6683 8.58927L11.2785 7.26092L11.8417 7.50252L11.2335 8.83246ZM12.4511 6.17417L11.8878 5.93098L12.4957 4.60459L13.0608 4.84778L12.4511 6.17417ZM13.6687 3.51962L13.1056 3.27624L13.7134 1.94807L14.2786 2.18967L13.6687 3.51962Z" fill="white"/>
<path d="M0 0.00195399H4.17743C4.31736 0.00174734 4.45468 0.0387349 4.57456 0.108919C4.69444 0.179104 4.79232 0.279817 4.85761 0.400173L8.97326 7.99354L4.98338 7.99531C4.78964 7.99552 4.59952 7.9443 4.4335 7.84719C4.26748 7.75007 4.13186 7.61074 4.04125 7.44421L0 0.00195399Z" fill="white"/>
</svg>
